<?xml version="1.0" encoding="UTF-8"?>
<svg xmlns="http://www.w3.org/2000/svg" xmlns:xlink="http://www.w3.org/1999/xlink" width="198px" height="30px" viewBox="0 0 198 30" version="1.1">
<g id="surface1">
<path style=" stroke:none;fill-rule:nonzero;fill:rgb(98.823529%,98.823529%,98.823529%);fill-opacity:1;" d="M 0 0 C 65.339844 0 130.679688 0 198 0 C 198 9.898438 198 19.800781 198 30 C 132.660156 30 67.320312 30 0 30 C 0 20.101562 0 10.199219 0 0 Z M 0 0 "/>
<path style=" stroke:none;fill-rule:nonzero;fill:rgb(99.215686%,99.215686%,99.215686%);fill-opacity:1;" d="M 92.925781 3.253906 C 95.792969 5.625 97.46875 8.117188 97.988281 11.8125 C 98.273438 14.90625 98.382812 17.898438 97.167969 20.816406 C 97.085938 21.023438 97.003906 21.234375 96.917969 21.449219 C 95.875 23.824219 94.097656 25.992188 91.6875 27.027344 C 88.417969 28.148438 85.457031 28.101562 82.195312 26.9375 C 79.324219 25.414062 77.515625 22.71875 76.523438 19.679688 C 75.359375 15.535156 75.6875 10.996094 77.710938 7.199219 C 81.089844 1.664062 87.222656 0.28125 92.925781 3.253906 Z M 92.925781 3.253906 "/>
<path style=" stroke:none;fill-rule:nonzero;fill:rgb(99.215686%,99.215686%,99.215686%);fill-opacity:1;" d="M 195.25 0 C 196.15625 0 197.066406 0 198 0 C 198 7.375 198 14.75 198 22.347656 C 197.699219 22.246094 197.394531 22.144531 197.082031 22.039062 C 197.015625 22.300781 196.945312 22.558594 196.875 22.824219 C 196.125 24.792969 195.179688 26.089844 193.261719 27.003906 C 191.722656 27.492188 190.128906 27.367188 188.527344 27.320312 C 187.316406 27.296875 186.109375 27.269531 184.859375 27.246094 C 184.859375 23.40625 184.859375 19.566406 184.859375 15.613281 C 186.050781 15.59375 187.242188 15.574219 188.46875 15.554688 C 188.84375 15.546875 189.21875 15.539062 189.605469 15.53125 C 189.902344 15.527344 190.195312 15.523438 190.5 15.523438 C 190.804688 15.519531 191.105469 15.511719 191.417969 15.507812 C 192.195312 15.613281 192.195312 15.613281 193.109375 16.53125 C 193.109375 15.519531 193.109375 14.511719 193.109375 13.46875 C 192.707031 13.773438 192.304688 14.074219 191.890625 14.386719 C 191.105469 14.492188 191.105469 14.492188 190.230469 14.476562 C 189.949219 14.476562 189.667969 14.472656 189.375 14.46875 C 189.019531 14.460938 188.664062 14.453125 188.296875 14.445312 C 187.164062 14.425781 186.03125 14.40625 184.859375 14.386719 C 184.859375 10.449219 184.859375 6.507812 184.859375 2.449219 C 187.015625 2.402344 187.015625 2.402344 189.214844 2.351562 C 189.667969 2.339844 190.117188 2.324219 190.582031 2.3125 C 190.941406 2.308594 191.296875 2.304688 191.664062 2.300781 C 192.210938 2.289062 192.210938 2.289062 192.769531 2.273438 C 193.722656 2.449219 193.722656 2.449219 194.945312 3.980469 C 195.09375 2.007812 195.09375 2.007812 195.25 0 Z M 195.25 0 "/>
<path style=" stroke:none;fill-rule:nonzero;fill:rgb(3.921569%,3.921569%,3.921569%);fill-opacity:1;" d="M 95.984375 3.273438 C 98.773438 5.488281 100.605469 8.714844 101.140625 12.246094 C 101.515625 16.675781 100.667969 20.980469 98.007812 24.585938 C 96.144531 26.40625 94.148438 27.695312 91.667969 28.46875 C 91.335938 28.574219 91.003906 28.683594 90.660156 28.792969 C 86.96875 29.734375 82.910156 29.171875 79.617188 27.28125 C 78.503906 26.558594 77.574219 25.800781 76.695312 24.796875 C 76.4375 24.511719 76.175781 24.226562 75.910156 23.933594 C 73.269531 20.667969 72.714844 16.640625 73.027344 12.550781 C 73.625 8.632812 75.445312 5.226562 78.644531 2.820312 C 83.894531 -0.523438 90.871094 -0.289062 95.984375 3.273438 Z M 78.527344 5.816406 C 76.097656 9.683594 75.429688 13.957031 76.203125 18.441406 C 76.953125 21.65625 78.523438 24.4375 81.277344 26.328125 C 81.5 26.492188 81.71875 26.65625 81.945312 26.824219 C 84.855469 28.25 88.039062 28.085938 91.085938 27.253906 C 93.902344 26.25 95.785156 23.859375 97.109375 21.257812 C 97.230469 20.910156 97.347656 20.5625 97.472656 20.203125 C 97.59375 19.855469 97.710938 19.507812 97.835938 19.152344 C 98.769531 15.109375 98.289062 10.144531 96.175781 6.59375 C 94.507812 4.179688 92.597656 2.679688 89.738281 1.964844 C 85.050781 1.226562 81.6875 2.195312 78.527344 5.816406 Z M 78.527344 5.816406 "/>
<path style=" stroke:none;fill-rule:nonzero;fill:rgb(1.960784%,1.960784%,1.960784%);fill-opacity:1;" d="M 154 1.222656 C 155.726562 1.195312 157.457031 1.171875 159.183594 1.15625 C 159.769531 1.152344 160.359375 1.144531 160.945312 1.132812 C 168.011719 1.007812 168.011719 1.007812 170.167969 2.984375 C 171.957031 4.886719 172.183594 6.757812 172.140625 9.3125 C 171.917969 11.449219 171.039062 13.070312 169.46875 14.523438 C 168.457031 15.308594 167.421875 15.785156 166.222656 16.222656 C 166.386719 16.394531 166.546875 16.566406 166.714844 16.742188 C 168.105469 18.238281 169.339844 19.753906 170.5 21.429688 C 173.242188 25.585938 173.242188 25.585938 177.46875 27.761719 C 177.792969 27.792969 178.113281 27.824219 178.445312 27.855469 C 178.445312 28.058594 178.445312 28.261719 178.445312 28.46875 C 175.457031 28.730469 173.304688 28.34375 170.804688 26.632812 C 168.859375 24.988281 167.535156 22.566406 166.117188 20.46875 C 164.191406 17.355469 164.191406 17.355469 161.257812 15.402344 C 161.082031 15.371094 160.902344 15.339844 160.722656 15.304688 C 160.722656 15.105469 160.722656 14.902344 160.722656 14.695312 C 160.980469 14.6875 161.238281 14.679688 161.503906 14.671875 C 164.078125 14.539062 166.023438 14.3125 167.863281 12.417969 C 169.097656 10.46875 169.296875 8.613281 168.832031 6.351562 C 168.324219 4.769531 167.570312 4.007812 166.222656 3.0625 C 165.503906 2.703125 165.015625 2.695312 164.214844 2.660156 C 163.941406 2.644531 163.667969 2.632812 163.386719 2.621094 C 163.097656 2.605469 162.8125 2.59375 162.515625 2.582031 C 162.230469 2.570312 161.941406 2.554688 161.640625 2.542969 C 160.929688 2.511719 160.214844 2.480469 159.5 2.449219 C 159.519531 5.585938 159.542969 8.722656 159.570312 11.859375 C 159.585938 13.316406 159.597656 14.773438 159.605469 16.230469 C 159.613281 17.636719 159.625 19.042969 159.640625 20.445312 C 159.648438 20.984375 159.648438 21.519531 159.652344 22.058594 C 159.65625 22.808594 159.664062 23.558594 159.671875 24.308594 C 159.671875 24.644531 159.671875 24.644531 159.671875 24.984375 C 159.695312 26.171875 159.695312 26.171875 160.210938 27.214844 C 160.945312 27.699219 161.71875 27.921875 162.554688 28.164062 C 162.554688 28.265625 162.554688 28.367188 162.554688 28.46875 C 159.730469 28.46875 156.910156 28.46875 154 28.46875 C 154.917969 27.855469 154.917969 27.855469 155.71875 27.417969 C 156.53125 26.988281 156.53125 26.988281 156.75 26.019531 C 156.785156 25.300781 156.796875 24.582031 156.804688 23.859375 C 156.808594 23.53125 156.808594 23.53125 156.808594 23.199219 C 156.816406 22.476562 156.820312 21.753906 156.824219 21.027344 C 156.824219 20.660156 156.824219 20.660156 156.828125 20.28125 C 156.832031 18.972656 156.835938 17.664062 156.839844 16.355469 C 156.84375 15.007812 156.855469 13.65625 156.867188 12.304688 C 156.875 11.265625 156.875 10.226562 156.878906 9.191406 C 156.878906 8.691406 156.882812 8.195312 156.886719 7.695312 C 156.894531 7 156.894531 6.304688 156.894531 5.605469 C 156.894531 5.210938 156.898438 4.8125 156.898438 4.40625 C 156.726562 3.191406 156.394531 2.6875 155.527344 1.835938 C 154.722656 1.566406 154.722656 1.566406 154 1.53125 C 154 1.429688 154 1.328125 154 1.222656 Z M 154 1.222656 "/>
<path style=" stroke:none;fill-rule:nonzero;fill:rgb(2.745098%,2.745098%,2.745098%);fill-opacity:1;" d="M 22.304688 1.222656 C 25.332031 1.222656 28.355469 1.222656 31.472656 1.222656 C 30.96875 1.628906 30.464844 2.03125 29.945312 2.449219 C 30.085938 4.179688 30.773438 5.285156 31.703125 6.695312 C 31.96875 7.109375 32.234375 7.523438 32.5 7.9375 C 32.914062 8.578125 33.332031 9.222656 33.746094 9.863281 C 33.886719 10.082031 34.027344 10.300781 34.167969 10.523438 C 34.296875 10.722656 34.425781 10.921875 34.554688 11.125 C 34.832031 11.632812 34.832031 11.632812 34.832031 12.246094 C 35.035156 12.246094 35.238281 12.246094 35.445312 12.246094 C 35.527344 12.019531 35.613281 11.796875 35.699219 11.566406 C 36.039062 10.753906 36.425781 10.066406 36.894531 9.324219 C 37.054688 9.070312 37.21875 8.816406 37.382812 8.558594 C 37.550781 8.296875 37.71875 8.035156 37.890625 7.769531 C 38.054688 7.503906 38.222656 7.242188 38.394531 6.972656 C 39.03125 5.96875 39.675781 4.96875 40.332031 3.980469 C 40.511719 3.226562 40.511719 3.226562 40.332031 2.449219 C 39.578125 1.84375 39.578125 1.84375 38.804688 1.222656 C 41.628906 1.222656 44.453125 1.222656 47.359375 1.222656 C 47.359375 1.324219 47.359375 1.425781 47.359375 1.53125 C 46.863281 1.648438 46.367188 1.769531 45.867188 1.890625 C 44.03125 2.609375 42.992188 3.757812 41.976562 5.394531 C 41.714844 5.804688 41.453125 6.210938 41.195312 6.621094 C 41.058594 6.835938 40.917969 7.050781 40.777344 7.273438 C 40.304688 8.003906 39.808594 8.71875 39.308594 9.433594 C 39.140625 9.675781 38.972656 9.921875 38.796875 10.175781 C 38.464844 10.65625 38.128906 11.132812 37.789062 11.609375 C 37.636719 11.828125 37.488281 12.050781 37.332031 12.277344 C 37.195312 12.46875 37.058594 12.664062 36.921875 12.863281 C 36.566406 13.707031 36.691406 14.132812 36.972656 15 C 37.414062 15.839844 37.414062 15.839844 37.984375 16.695312 C 38.195312 17.019531 38.402344 17.34375 38.617188 17.675781 C 38.835938 18.011719 39.058594 18.347656 39.28125 18.691406 C 39.496094 19.019531 39.707031 19.347656 39.921875 19.683594 C 40.351562 20.34375 40.78125 21.003906 41.210938 21.660156 C 41.648438 22.332031 42.082031 23.003906 42.515625 23.675781 C 42.722656 24 42.933594 24.324219 43.148438 24.660156 C 43.335938 24.953125 43.519531 25.242188 43.710938 25.542969 C 44.648438 26.777344 45.621094 27.621094 47.152344 27.933594 C 47.707031 28.046875 47.707031 28.046875 48.277344 28.164062 C 48.277344 28.265625 48.277344 28.367188 48.277344 28.46875 C 45.152344 28.46875 42.027344 28.46875 38.804688 28.46875 C 39.308594 28.066406 39.8125 27.660156 40.332031 27.246094 C 40.597656 26 40.371094 25.476562 39.75 24.363281 C 39.492188 23.988281 39.226562 23.617188 38.957031 23.246094 C 38.675781 22.84375 38.398438 22.441406 38.117188 22.039062 C 37.976562 21.835938 37.835938 21.632812 37.691406 21.425781 C 36.839844 20.171875 36.085938 18.855469 35.320312 17.546875 C 35.160156 17.3125 35 17.078125 34.832031 16.835938 C 34.632812 16.835938 34.429688 16.835938 34.222656 16.835938 C 33.851562 17.304688 33.851562 17.304688 33.503906 17.921875 C 33.292969 18.269531 33.292969 18.269531 33.082031 18.625 C 32.933594 18.875 32.789062 19.125 32.636719 19.382812 C 32.335938 19.886719 32.03125 20.394531 31.730469 20.902344 C 31.582031 21.148438 31.433594 21.398438 31.28125 21.652344 C 30.585938 22.800781 29.832031 23.914062 29.070312 25.023438 C 28.644531 25.867188 28.539062 26.3125 28.722656 27.246094 C 29.226562 27.648438 29.730469 28.054688 30.25 28.46875 C 27.425781 28.46875 24.601562 28.46875 21.695312 28.46875 C 22.917969 27.855469 22.917969 27.855469 23.777344 27.511719 C 26.378906 25.976562 28.023438 22.949219 29.679688 20.480469 C 30.101562 19.855469 30.53125 19.234375 30.960938 18.613281 C 31.230469 18.210938 31.5 17.808594 31.769531 17.410156 C 31.960938 17.132812 31.960938 17.132812 32.15625 16.851562 C 32.738281 15.96875 33.003906 15.417969 32.980469 14.351562 C 32.683594 13.441406 32.335938 12.746094 31.816406 11.945312 C 31.636719 11.667969 31.457031 11.386719 31.269531 11.097656 C 31.078125 10.808594 30.886719 10.515625 30.6875 10.21875 C 30.496094 9.917969 30.300781 9.617188 30.101562 9.308594 C 29.714844 8.71875 29.328125 8.125 28.9375 7.535156 C 28.503906 6.867188 28.074219 6.195312 27.652344 5.519531 C 27.351562 5.042969 27.351562 5.042969 27.042969 4.554688 C 26.875 4.289062 26.707031 4.023438 26.535156 3.746094 C 25.585938 2.589844 24.5625 1.929688 23.109375 1.605469 C 22.84375 1.582031 22.578125 1.554688 22.304688 1.53125 C 22.304688 1.429688 22.304688 1.328125 22.304688 1.222656 Z M 22.304688 1.222656 "/>
<path style=" stroke:none;fill-rule:nonzero;fill:rgb(2.745098%,2.745098%,2.745098%);fill-opacity:1;" d="M 123.445312 1.222656 C 126.066406 1.222656 128.6875 1.222656 131.390625 1.222656 C 131.390625 1.324219 131.390625 1.425781 131.390625 1.53125 C 131.097656 1.617188 130.808594 1.707031 130.511719 1.796875 C 129.539062 2.070312 129.539062 2.070312 128.945312 2.753906 C 128.84375 3.507812 128.84375 3.507812 128.851562 4.394531 C 128.847656 4.738281 128.839844 5.082031 128.835938 5.4375 C 128.835938 5.8125 128.832031 6.183594 128.832031 6.570312 C 128.828125 6.953125 128.824219 7.339844 128.824219 7.734375 C 128.816406 8.550781 128.816406 9.367188 128.8125 10.183594 C 128.8125 11.222656 128.800781 12.257812 128.789062 13.296875 C 128.777344 14.292969 128.777344 15.292969 128.773438 16.289062 C 128.769531 16.65625 128.761719 17.023438 128.753906 17.402344 C 128.769531 20.304688 129.425781 22.941406 131.234375 25.273438 C 132.890625 26.890625 134.660156 27.636719 136.964844 27.664062 C 139.6875 27.621094 141.695312 26.714844 143.609375 24.796875 C 145.503906 22.058594 145.539062 19.15625 145.535156 15.910156 C 145.539062 15.347656 145.539062 15.347656 145.539062 14.777344 C 145.542969 13.988281 145.542969 13.203125 145.539062 12.417969 C 145.539062 11.210938 145.546875 10.003906 145.554688 8.796875 C 145.554688 8.03125 145.554688 7.261719 145.554688 6.496094 C 145.558594 6.136719 145.5625 5.773438 145.5625 5.402344 C 145.5625 4.902344 145.5625 4.902344 145.558594 4.390625 C 145.558594 4.09375 145.558594 3.800781 145.558594 3.496094 C 145.425781 2.621094 145.230469 2.355469 144.527344 1.835938 C 143.730469 1.617188 143.730469 1.617188 143 1.53125 C 143 1.429688 143 1.328125 143 1.222656 C 145.320312 1.222656 147.636719 1.222656 150.027344 1.222656 C 149.625 1.425781 149.222656 1.628906 148.804688 1.835938 C 148.503906 2.039062 148.199219 2.242188 147.890625 2.449219 C 147.75 3.175781 147.75 3.175781 147.769531 4.027344 C 147.769531 4.359375 147.765625 4.691406 147.761719 5.03125 C 147.761719 5.390625 147.765625 5.75 147.765625 6.117188 C 147.761719 6.675781 147.761719 6.675781 147.753906 7.242188 C 147.746094 8.429688 147.738281 9.621094 147.734375 10.808594 C 147.730469 12.363281 147.722656 13.917969 147.707031 15.476562 C 147.707031 15.828125 147.710938 16.179688 147.710938 16.542969 C 147.671875 20.753906 146.980469 23.820312 144.03125 26.84375 C 141.214844 29.003906 138.269531 29.363281 134.855469 28.992188 C 131.949219 28.535156 129.550781 27.105469 127.722656 24.796875 C 126.613281 22.992188 126.160156 21.433594 126.144531 19.3125 C 126.144531 18.949219 126.140625 18.582031 126.136719 18.207031 C 126.132812 17.8125 126.132812 17.421875 126.128906 17.015625 C 126.125 16.402344 126.117188 15.785156 126.109375 15.167969 C 126.09375 13.644531 126.082031 12.125 126.070312 10.605469 C 126.066406 9.75 126.058594 8.894531 126.050781 8.042969 C 126.039062 7.238281 126.035156 6.433594 126.03125 5.628906 C 126.027344 5.265625 126.019531 4.902344 126.015625 4.527344 C 126.015625 4.207031 126.011719 3.886719 126.007812 3.554688 C 125.953125 2.75 125.953125 2.75 125.472656 2.199219 C 124.820312 1.726562 124.234375 1.636719 123.445312 1.53125 C 123.445312 1.429688 123.445312 1.328125 123.445312 1.222656 Z M 123.445312 1.222656 "/>
<path style=" stroke:none;fill-rule:nonzero;fill:rgb(1.568628%,1.568628%,1.568628%);fill-opacity:1;" d="M 50.109375 1.222656 C 51.800781 1.203125 53.492188 1.183594 55.183594 1.175781 C 55.757812 1.167969 56.328125 1.164062 56.902344 1.15625 C 57.734375 1.144531 58.5625 1.140625 59.390625 1.136719 C 59.769531 1.128906 59.769531 1.128906 60.160156 1.121094 C 62.269531 1.121094 64.097656 1.558594 65.921875 2.640625 C 67.617188 4.429688 68.242188 5.945312 68.3125 8.4375 C 68.207031 11.101562 67.660156 12.539062 65.734375 14.347656 C 64.136719 15.738281 62.535156 16.003906 60.460938 15.996094 C 60.09375 15.996094 59.730469 16 59.351562 16 C 58.425781 15.921875 57.914062 15.792969 57.140625 15.304688 C 57.140625 15.207031 57.140625 15.105469 57.140625 15 C 57.347656 14.996094 57.554688 14.992188 57.765625 14.988281 C 59.953125 14.875 61.761719 14.472656 63.554688 13.164062 C 65.136719 11.25 65.265625 9.113281 65.082031 6.734375 C 64.714844 5.164062 63.855469 4.097656 62.640625 3.0625 C 61.785156 2.777344 61.183594 2.699219 60.296875 2.660156 C 60.023438 2.644531 59.75 2.632812 59.46875 2.621094 C 59.1875 2.605469 58.902344 2.59375 58.609375 2.582031 C 58.320312 2.570312 58.035156 2.554688 57.738281 2.542969 C 57.03125 2.511719 56.320312 2.480469 55.609375 2.449219 C 55.628906 5.496094 55.652344 8.542969 55.683594 11.589844 C 55.695312 13.003906 55.707031 14.417969 55.71875 15.835938 C 55.726562 17.199219 55.738281 18.566406 55.753906 19.929688 C 55.757812 20.453125 55.761719 20.972656 55.761719 21.492188 C 55.765625 22.222656 55.773438 22.953125 55.785156 23.683594 C 55.785156 24.003906 55.785156 24.003906 55.785156 24.335938 C 55.808594 25.652344 56.007812 26.511719 56.832031 27.550781 C 57.773438 27.96875 57.773438 27.96875 58.667969 28.164062 C 58.667969 28.265625 58.667969 28.367188 58.667969 28.46875 C 55.84375 28.46875 53.019531 28.46875 50.109375 28.46875 C 51.027344 27.855469 51.027344 27.855469 51.828125 27.417969 C 52.644531 26.988281 52.644531 26.988281 52.859375 26.019531 C 52.894531 25.300781 52.910156 24.582031 52.914062 23.859375 C 52.917969 23.53125 52.917969 23.53125 52.921875 23.199219 C 52.925781 22.476562 52.929688 21.753906 52.933594 21.027344 C 52.9375 20.660156 52.9375 20.660156 52.9375 20.28125 C 52.945312 18.972656 52.949219 17.664062 52.953125 16.355469 C 52.953125 15.007812 52.964844 13.65625 52.976562 12.304688 C 52.984375 11.265625 52.988281 10.226562 52.988281 9.191406 C 52.992188 8.691406 52.992188 8.195312 53 7.695312 C 53.007812 7 53.007812 6.304688 53.003906 5.605469 C 53.007812 5.210938 53.007812 4.8125 53.011719 4.40625 C 52.835938 3.191406 52.507812 2.6875 51.640625 1.835938 C 50.832031 1.566406 50.832031 1.566406 50.109375 1.53125 C 50.109375 1.429688 50.109375 1.328125 50.109375 1.222656 Z M 50.109375 1.222656 "/>
<path style=" stroke:none;fill-rule:nonzero;fill:rgb(5.490196%,5.490196%,5.490196%);fill-opacity:1;" d="M 195.25 0.613281 C 195.25 2.128906 195.25 3.644531 195.25 5.203125 C 195.046875 4.800781 194.847656 4.394531 194.640625 3.980469 C 194.296875 3.28125 194.296875 3.28125 193.722656 2.753906 C 192.777344 2.558594 192.777344 2.558594 191.695312 2.570312 C 191.335938 2.558594 190.980469 2.550781 190.609375 2.539062 C 189.929688 2.53125 189.929688 2.53125 189.234375 2.527344 C 187.792969 2.5 186.347656 2.476562 184.859375 2.449219 C 184.859375 6.390625 184.859375 10.328125 184.859375 14.386719 C 186 14.351562 187.140625 14.3125 188.316406 14.273438 C 188.675781 14.261719 189.035156 14.253906 189.402344 14.242188 C 189.6875 14.230469 189.96875 14.21875 190.261719 14.207031 C 190.550781 14.199219 190.839844 14.1875 191.140625 14.179688 C 191.964844 14.128906 191.964844 14.128906 192.804688 13.46875 C 193.027344 12.683594 193.027344 12.683594 193.109375 11.9375 C 193.210938 11.9375 193.3125 11.9375 193.417969 11.9375 C 193.417969 13.960938 193.417969 15.980469 193.417969 18.0625 C 193.316406 18.0625 193.214844 18.0625 193.109375 18.0625 C 193.015625 17.765625 192.921875 17.46875 192.824219 17.160156 C 192.59375 16.273438 192.59375 16.273438 192.195312 15.917969 C 191.652344 15.871094 191.105469 15.839844 190.558594 15.820312 C 190.113281 15.804688 190.113281 15.804688 189.660156 15.785156 C 189.28125 15.773438 188.898438 15.761719 188.507812 15.746094 C 187.304688 15.703125 186.101562 15.65625 184.859375 15.613281 C 184.859375 19.449219 184.859375 23.289062 184.859375 27.246094 C 186.675781 27.207031 186.675781 27.207031 188.527344 27.167969 C 188.90625 27.164062 189.28125 27.160156 189.667969 27.152344 C 191.957031 27.082031 193.804688 26.820312 195.496094 25.179688 C 195.65625 24.921875 195.65625 24.921875 195.824219 24.660156 C 195.941406 24.480469 196.058594 24.296875 196.175781 24.105469 C 196.546875 23.4375 196.84375 22.765625 197.082031 22.039062 C 197.285156 22.039062 197.488281 22.039062 197.695312 22.039062 C 196.625 25.253906 196.625 25.253906 195.554688 28.46875 C 190.210938 28.46875 184.867188 28.46875 179.359375 28.46875 C 180.582031 27.855469 180.582031 27.855469 181.5 27.550781 C 181.859375 26.464844 181.855469 25.480469 181.859375 24.351562 C 181.863281 24.121094 181.863281 23.886719 181.867188 23.648438 C 181.871094 22.882812 181.875 22.117188 181.878906 21.351562 C 181.878906 21.089844 181.878906 20.828125 181.882812 20.558594 C 181.886719 19.175781 181.894531 17.792969 181.894531 16.414062 C 181.898438 14.980469 181.910156 13.550781 181.921875 12.121094 C 181.929688 11.023438 181.933594 9.925781 181.933594 8.828125 C 181.933594 8.300781 181.9375 7.773438 181.945312 7.246094 C 181.953125 6.507812 181.953125 5.773438 181.949219 5.035156 C 181.953125 4.707031 181.953125 4.707031 181.960938 4.375 C 181.949219 3.414062 181.941406 2.894531 181.261719 2.191406 C 181.039062 2.074219 180.8125 1.957031 180.582031 1.835938 C 180.355469 1.714844 180.128906 1.597656 179.894531 1.472656 C 179.71875 1.390625 179.542969 1.308594 179.359375 1.222656 C 179.929688 1.214844 179.929688 1.214844 180.511719 1.203125 C 181.921875 1.171875 183.332031 1.140625 184.742188 1.109375 C 185.351562 1.097656 185.964844 1.085938 186.574219 1.070312 C 187.453125 1.054688 188.328125 1.035156 189.207031 1.015625 C 189.613281 1.007812 189.613281 1.007812 190.03125 1 C 191.789062 0.957031 193.5 0.613281 195.25 0.613281 Z M 195.25 0.613281 "/>
<path style=" stroke:none;fill-rule:nonzero;fill:rgb(1.960784%,1.960784%,1.960784%);fill-opacity:1;" d="M 17.722656 0.613281 C 17.722656 2.128906 17.722656 3.644531 17.722656 5.203125 C 17.621094 5.203125 17.519531 5.203125 17.417969 5.203125 C 17.328125 4.914062 17.238281 4.625 17.148438 4.324219 C 16.875 3.351562 16.875 3.351562 16.195312 2.753906 C 15.273438 2.640625 15.273438 2.640625 14.195312 2.628906 C 13.660156 2.613281 13.660156 2.613281 13.109375 2.59375 C 12.652344 2.585938 12.195312 2.574219 11.726562 2.5625 C 10.277344 2.527344 8.828125 2.488281 7.332031 2.449219 C 7.332031 6.390625 7.332031 10.328125 7.332031 14.386719 C 8.523438 14.355469 9.714844 14.324219 10.941406 14.292969 C 11.316406 14.285156 11.691406 14.277344 12.078125 14.269531 C 12.519531 14.253906 12.519531 14.253906 12.972656 14.238281 C 13.277344 14.230469 13.578125 14.222656 13.890625 14.214844 C 14.792969 14.058594 15.042969 13.890625 15.582031 13.164062 C 15.785156 12.757812 15.988281 12.355469 16.195312 11.9375 C 16.195312 13.960938 16.195312 15.980469 16.195312 18.0625 C 15.582031 16.835938 15.582031 16.835938 15.277344 15.917969 C 11.34375 15.765625 11.34375 15.765625 7.332031 15.613281 C 7.332031 19.449219 7.332031 23.289062 7.332031 27.246094 C 9.148438 27.207031 9.148438 27.207031 11 27.167969 C 11.375 27.164062 11.753906 27.160156 12.140625 27.152344 C 14.539062 27.078125 16.363281 26.796875 18.105469 25.007812 C 18.734375 24.039062 19.304688 23.054688 19.859375 22.039062 C 20.167969 22.960938 20.167969 22.960938 18.027344 28.46875 C 12.683594 28.46875 7.339844 28.46875 1.832031 28.46875 C 2.75 27.855469 2.75 27.855469 3.550781 27.417969 C 4.367188 26.988281 4.367188 26.988281 4.582031 26.019531 C 4.617188 25.300781 4.632812 24.582031 4.636719 23.859375 C 4.640625 23.53125 4.640625 23.53125 4.644531 23.199219 C 4.648438 22.476562 4.652344 21.753906 4.65625 21.027344 C 4.65625 20.78125 4.660156 20.535156 4.660156 20.28125 C 4.667969 18.972656 4.671875 17.664062 4.671875 16.355469 C 4.675781 15.007812 4.6875 13.65625 4.699219 12.304688 C 4.707031 11.265625 4.710938 10.226562 4.710938 9.191406 C 4.710938 8.691406 4.714844 8.195312 4.722656 7.695312 C 4.730469 7 4.730469 6.304688 4.726562 5.605469 C 4.730469 5.210938 4.730469 4.8125 4.730469 4.40625 C 4.558594 3.191406 4.230469 2.6875 3.359375 1.835938 C 2.554688 1.566406 2.554688 1.566406 1.832031 1.53125 C 1.832031 1.429688 1.832031 1.328125 1.832031 1.222656 C 2.191406 1.21875 2.546875 1.210938 2.917969 1.203125 C 4.25 1.171875 5.585938 1.140625 6.921875 1.109375 C 7.496094 1.097656 8.074219 1.085938 8.648438 1.070312 C 9.480469 1.054688 10.3125 1.035156 11.144531 1.015625 C 11.398438 1.011719 11.652344 1.003906 11.914062 1 C 13.863281 0.949219 15.78125 0.613281 17.722656 0.613281 Z M 17.722656 0.613281 "/>
<path style=" stroke:none;fill-rule:nonzero;fill:rgb(3.921569%,3.921569%,3.921569%);fill-opacity:1;" d="M 117.640625 0.917969 C 117.640625 2.535156 117.640625 4.152344 117.640625 5.816406 C 117.539062 5.816406 117.4375 5.816406 117.332031 5.816406 C 117.265625 5.542969 117.195312 5.273438 117.125 4.992188 C 116.664062 3.832031 116.136719 3.253906 115.195312 2.449219 C 113.472656 1.875 111.804688 1.855469 110.171875 2.660156 C 108.945312 3.769531 108.425781 4.582031 108.339844 6.238281 C 108.410156 7.929688 108.992188 9.136719 110.214844 10.285156 C 110.410156 10.449219 110.609375 10.617188 110.808594 10.789062 C 112.109375 11.90625 113.371094 13.0625 114.621094 14.234375 C 114.828125 14.425781 115.035156 14.617188 115.25 14.816406 C 119.0625 18.386719 119.0625 18.386719 119.230469 20.8125 C 119.265625 23.300781 119.074219 24.75 117.714844 26.84375 C 116.089844 28.515625 114.257812 29.121094 111.96875 29.175781 C 109.722656 29.160156 107.917969 28.507812 105.9375 27.5 C 105.269531 26.78125 105.28125 26.226562 105.292969 25.269531 C 105.304688 25.0625 105.3125 24.855469 105.320312 24.644531 C 105.324219 24.4375 105.328125 24.230469 105.332031 24.015625 C 105.351562 23.078125 105.425781 22.320312 105.722656 21.429688 C 105.925781 21.429688 106.125 21.429688 106.332031 21.429688 C 106.363281 21.648438 106.394531 21.871094 106.425781 22.101562 C 106.695312 23.871094 106.933594 25.261719 108.167969 26.632812 C 109.632812 27.65625 111.019531 27.773438 112.75 27.550781 C 114.136719 27.175781 115.210938 26.542969 116.109375 25.40625 C 116.855469 24.101562 116.996094 22.589844 116.722656 21.121094 C 115.964844 19.558594 115.15625 18.546875 113.839844 17.390625 C 113.515625 17.101562 113.191406 16.8125 112.867188 16.523438 C 112.699219 16.375 112.53125 16.226562 112.355469 16.074219 C 111.460938 15.28125 110.578125 14.472656 109.695312 13.660156 C 109.53125 13.511719 109.363281 13.363281 109.195312 13.207031 C 107.566406 11.714844 106.214844 10.339844 105.925781 8.078125 C 105.894531 5.828125 106.183594 4.195312 107.753906 2.523438 C 110.574219 -0.0351562 114.066406 0.347656 117.640625 0.917969 Z M 117.640625 0.917969 "/>
<path style=" stroke:none;fill-rule:nonzero;fill:rgb(21.176471%,21.176471%,21.176471%);fill-opacity:1;" d="M 105.722656 21.429688 C 105.925781 21.429688 106.125 21.429688 106.332031 21.429688 C 106.390625 22.308594 106.390625 22.308594 106.332031 23.265625 C 106.03125 23.46875 105.726562 23.667969 105.417969 23.878906 C 105.515625 23.070312 105.617188 22.261719 105.722656 21.429688 Z M 105.722656 21.429688 "/>
</g>
</svg>
