<?xml version="1.0" encoding="UTF-8"?>
<svg version="1.1" xmlns="http://www.w3.org/2000/svg" width="648" height="98">
<path d="M0 0 C213.84 0 427.68 0 648 0 C648 32.34 648 64.68 648 98 C434.16 98 220.32 98 0 98 C0 65.66 0 33.32 0 0 Z " fill="#FCFCFC" transform="translate(0,0)"/>
<path d="M0 0 C9.38304142 7.75120813 14.86331529 15.89544218 16.55859375 27.9609375 C17.49545514 38.06978759 17.85452592 47.84825614 13.875 57.375 C13.60816406 58.05691406 13.34132813 58.73882812 13.06640625 59.44140625 C9.64706701 67.20710559 3.83563957 74.2847259 -4.05859375 77.66796875 C-14.75538462 81.32792933 -24.44832284 81.1788364 -35.125 77.375 C-44.52185551 72.39737875 -50.43288219 63.58975437 -53.68408203 53.66503906 C-57.49106455 40.12243984 -56.41522706 25.29808862 -49.8046875 12.8984375 C-38.73578648 -5.18681608 -18.66432371 -9.70544833 0 0 Z " fill="#FDFDFD" transform="translate(304.125,10.625)"/>
<path d="M0 0 C2.97 0 5.94 0 9 0 C9 24.09 9 48.18 9 73 C8.01 72.67 7.02 72.34 6 72 C5.773125 72.845625 5.54625 73.69125 5.3125 74.5625 C2.85950189 80.98701886 -0.22946537 85.22906695 -6.50341797 88.21044922 C-11.54824739 89.80589009 -16.76600469 89.40466566 -22 89.25 C-25.96 89.1675 -29.92 89.085 -34 89 C-34 76.46 -34 63.92 -34 51 C-30.101875 50.938125 -26.20375 50.87625 -22.1875 50.8125 C-20.96184326 50.78518799 -19.73618652 50.75787598 -18.47338867 50.72973633 C-17.5063501 50.72224365 -16.53931152 50.71475098 -15.54296875 50.70703125 C-14.55321045 50.6913208 -13.56345215 50.67561035 -12.54370117 50.65942383 C-10 51 -10 51 -7 54 C-7 50.7 -7 47.4 -7 44 C-8.32 44.99 -9.64 45.98 -11 47 C-13.56542969 47.34057617 -13.56542969 47.34057617 -16.421875 47.29296875 C-17.34581055 47.28547607 -18.26974609 47.2779834 -19.22167969 47.27026367 C-20.38602539 47.24295166 -21.55037109 47.21563965 -22.75 47.1875 C-26.4625 47.125625 -30.175 47.06375 -34 47 C-34 34.13 -34 21.26 -34 8 C-26.94625 7.8453125 -26.94625 7.8453125 -19.75 7.6875 C-18.27241211 7.64197998 -16.79482422 7.59645996 -15.27246094 7.54956055 C-14.10489258 7.53707275 -12.93732422 7.52458496 -11.734375 7.51171875 C-9.94338379 7.47244263 -9.94338379 7.47244263 -8.11621094 7.43237305 C-5 8 -5 8 -1 13 C-0.505 6.565 -0.505 6.565 0 0 Z " fill="#FDFDFD" transform="translate(639,0)"/>
<path d="M0 0 C9.13637135 7.24357728 15.13530644 17.78703017 16.875 29.3125 C18.11177697 43.793097 15.3374068 57.84309756 6.625 69.625 C0.53476241 75.5768231 -6.00651019 79.78379006 -14.125 82.3125 C-15.21039063 82.66054687 -16.29578125 83.00859375 -17.4140625 83.3671875 C-29.49770531 86.44533651 -42.78010091 84.60795848 -53.5625 78.4375 C-57.20810159 76.07310025 -60.25002066 73.59819067 -63.125 70.3125 C-63.970625 69.384375 -64.81625 68.45625 -65.6875 67.5 C-74.32744703 56.82871746 -76.15003228 43.66600274 -75.125 30.3125 C-73.17466429 17.5068074 -67.21120238 6.38707756 -56.73828125 -1.48046875 C-39.55802029 -12.40355461 -16.72836864 -11.63572462 0 0 Z M-57.125 8.3125 C-65.07831503 20.93941252 -67.26251422 34.91113912 -64.73828125 49.55615234 C-62.274722 60.0533783 -57.13730117 69.14618868 -48.125 75.3125 C-47.403125 75.84875 -46.68125 76.385 -45.9375 76.9375 C-36.4112712 81.59476742 -25.99803295 81.05489008 -16.01953125 78.34375 C-6.80651883 75.0613812 -0.64162399 67.25896784 3.6875 58.75 C4.079375 57.615625 4.47125 56.48125 4.875 55.3125 C5.266875 54.178125 5.65875 53.04375 6.0625 51.875 C9.11482345 38.6653649 7.55087886 22.45719503 0.63671875 10.85546875 C-4.8286045 2.96649883 -11.08289941 -1.9299437 -20.44140625 -4.265625 C-35.77316319 -6.67585753 -46.78859896 -3.51557182 -57.125 8.3125 Z " fill="#0A0A0A" transform="translate(314.125,10.6875)"/>
<path d="M0 0 C5.65587346 -0.09958872 11.31122578 -0.17180596 16.96777344 -0.21972656 C18.88811139 -0.23972336 20.80838939 -0.26693006 22.72851562 -0.30175781 C45.86250932 -0.71057059 45.86250932 -0.71057059 52.90966797 5.75097656 C58.76488669 11.96034883 59.51481939 18.07249899 59.375 26.41796875 C58.64439891 33.39673128 55.75944941 38.69711669 50.625 43.4375 C47.31204073 46.0077739 43.92391886 47.55856042 40 49 C40.53367187 49.55945312 41.06734375 50.11890625 41.6171875 50.6953125 C46.15805623 55.58185289 50.20013822 60.52834791 54 66 C62.97601865 79.58116104 62.97601865 79.58116104 76.8125 86.6875 C77.864375 86.790625 78.91625 86.89375 80 87 C80 87.66 80 88.32 80 89 C70.21957131 89.85184379 63.17523577 88.5954947 55 83 C48.62580555 77.62542464 44.29929146 69.71688821 39.65234375 62.8671875 C33.35465537 52.69171024 33.35465537 52.69171024 23.75 46.3125 C23.1725 46.209375 22.595 46.10625 22 46 C22 45.34 22 44.68 22 44 C22.845625 43.97421875 23.69125 43.9484375 24.5625 43.921875 C32.9870389 43.50064805 39.34354621 42.75267626 45.375 36.5625 C49.41024307 30.19923208 50.06116974 24.13641823 48.53515625 16.75 C46.87965495 11.57778293 44.41091036 9.09702217 40 6 C37.65061112 4.82530556 36.04926795 4.79965111 33.4296875 4.68359375 C32.53378906 4.64169922 31.63789062 4.59980469 30.71484375 4.55664062 C29.77769531 4.51732422 28.84054687 4.47800781 27.875 4.4375 C26.93011719 4.39431641 25.98523438 4.35113281 25.01171875 4.30664062 C22.67462908 4.20040928 20.3374317 4.09836824 18 4 C18.06115751 14.2486865 18.1382247 24.49711721 18.23571491 34.74552631 C18.28047936 39.50408047 18.31972194 44.2625478 18.34643555 49.02124023 C18.37240812 53.61200296 18.4127672 58.20243266 18.46318626 62.79298973 C18.47989603 64.54606172 18.49138465 66.29919137 18.49761391 68.05233192 C18.50721059 70.50440164 18.5352152 72.95561142 18.56762695 75.4074707 C18.56547432 76.49935448 18.56547432 76.49935448 18.5632782 77.61329651 C18.63467621 81.49545014 18.63467621 81.49545014 20.32780457 84.90031433 C22.72775917 86.47859617 25.25570477 87.2072036 28 88 C28 88.33 28 88.66 28 89 C18.76 89 9.52 89 0 89 C3 87 3 87 5.625 85.5625 C8.29046993 84.15982726 8.29046993 84.15982726 9 81 C9.1102479 78.65044532 9.15909259 76.29787244 9.17700195 73.94580078 C9.18685875 72.87454453 9.18685875 72.87454453 9.19691467 71.78164673 C9.21661689 69.41953422 9.22830225 67.05748514 9.23828125 64.6953125 C9.24439454 63.48418604 9.24439454 63.48418604 9.25063133 62.24859238 C9.27147717 57.9764405 9.2857863 53.70432062 9.29516602 49.43212891 C9.30623821 45.02133413 9.34065127 40.61104277 9.38033772 36.2004261 C9.40648512 32.80662093 9.41485607 29.4129362 9.41844749 26.01903915 C9.42331694 24.39314238 9.43494119 22.7672511 9.45348549 21.14145279 C9.47784225 18.86489167 9.47691921 16.58963989 9.4699707 14.31298828 C9.47583694 13.0185379 9.48170319 11.72408752 9.48774719 10.39041138 C8.91710774 6.4238022 7.84171025 4.77700772 5 2 C2.36539052 1.12056596 2.36539052 1.12056596 0 1 C0 0.67 0 0.34 0 0 Z " fill="#050505" transform="translate(504,4)"/>
<path d="M0 0 C9.9 0 19.8 0 30 0 C28.35 1.32 26.7 2.64 25 4 C25.45833568 9.65868288 27.70933796 13.2612787 30.75 17.875 C31.61979167 19.2265625 32.48958333 20.578125 33.359375 21.9296875 C34.71966063 24.02704867 36.08060811 26.12396633 37.44335938 28.21972656 C37.90033203 28.93354492 38.35730469 29.64736328 38.828125 30.3828125 C39.24481445 31.02879395 39.66150391 31.67477539 40.09082031 32.34033203 C41 34 41 34 41 36 C41.66 36 42.32 36 43 36 C43.27328125 35.26861816 43.5465625 34.53723633 43.828125 33.78369141 C44.94302086 31.13534919 46.20584582 28.87834823 47.75 26.4609375 C48.2759375 25.63335938 48.801875 24.80578125 49.34375 23.953125 C49.8903125 23.10234375 50.436875 22.2515625 51 21.375 C51.5465625 20.51648438 52.093125 19.65796875 52.65625 18.7734375 C54.74489792 15.49712704 56.84469006 12.23296491 59 9 C59.58350505 6.54290625 59.58350505 6.54290625 59 4 C56.525 2.02 56.525 2.02 54 0 C63.24 0 72.48 0 82 0 C82 0.33 82 0.66 82 1 C80.37239583 1.390625 78.74479167 1.78125 77.1171875 2.171875 C71.10661479 4.52287392 67.69692359 8.27069971 64.375 13.625 C63.52329586 14.9590749 62.67037363 16.29237271 61.81640625 17.625 C61.36797363 18.33011719 60.91954102 19.03523438 60.45751953 19.76171875 C58.90365637 22.14795283 57.28722445 24.48109932 55.65234375 26.8125 C55.09691895 27.61349121 54.54149414 28.41448242 53.96923828 29.23974609 C52.88044825 30.80730851 51.78141931 32.36781771 50.67138672 33.92041016 C50.17783691 34.64019043 49.68428711 35.3599707 49.17578125 36.1015625 C48.73145752 36.73400879 48.28713379 37.36645508 47.8293457 38.01806641 C46.67463456 40.77754391 47.08330906 42.17110344 48 45 C49.45114678 47.74674126 49.45114678 47.74674126 51.31640625 50.53515625 C51.99896484 51.59283203 52.68152344 52.65050781 53.38476562 53.74023438 C54.10341797 54.83658203 54.82207031 55.93292969 55.5625 57.0625 C56.25408203 58.13177734 56.94566406 59.20105469 57.65820312 60.30273438 C59.05708134 62.46037039 60.46287454 64.61353863 61.87548828 66.76220703 C63.30915742 68.94714385 64.72913525 71.1411175 66.13623047 73.34326172 C66.82217285 74.40432129 67.50811523 75.46538086 68.21484375 76.55859375 C68.82320068 77.50919678 69.43155762 78.4597998 70.05834961 79.43920898 C73.11794278 83.47442497 76.30217737 86.23095133 81.3125 87.25 C83.1378125 87.62125 83.1378125 87.62125 85 88 C85 88.33 85 88.66 85 89 C74.77 89 64.54 89 54 89 C55.65 87.68 57.3 86.36 59 85 C59.85997356 80.93209877 59.1254213 79.22437047 57.09375 75.58984375 C56.24240041 74.36310513 55.37705742 73.14599247 54.5 71.9375 C53.58105179 70.62398908 52.66442569 69.30885086 51.75 67.9921875 C51.28851563 67.33186523 50.82703125 66.67154297 50.3515625 65.99121094 C47.5677527 61.8899189 45.10282974 57.58903999 42.59375 53.31640625 C42.0678125 52.55199219 41.541875 51.78757813 41 51 C40.34 51 39.68 51 39 51 C37.78880418 52.53105238 37.78880418 52.53105238 36.64453125 54.55078125 C35.9625769 55.68543823 35.9625769 55.68543823 35.2668457 56.84301758 C34.78691162 57.65794678 34.30697754 58.47287598 33.8125 59.3125 C32.82406427 60.96943513 31.83448199 62.62568684 30.84375 64.28125 C30.36035156 65.09078125 29.87695312 65.9003125 29.37890625 66.734375 C27.09459747 70.48763022 24.63380867 74.11804407 22.14453125 77.73828125 C20.74848734 80.49701649 20.39485634 81.95491709 21 85 C22.65 86.32 24.3 87.64 26 89 C16.76 89 7.52 89 -2 89 C2 87 2 87 4.8125 85.875 C13.33626247 80.86102208 18.71538201 70.9689778 24.12792969 62.90869141 C25.50928939 60.86123121 26.91442624 58.83145157 28.3203125 56.80078125 C29.20463396 55.49060056 30.08750038 54.17943633 30.96875 52.8671875 C31.59976624 51.96696365 31.59976624 51.96696365 32.24353027 51.04855347 C34.14025516 48.16580864 35.00797981 46.36529792 34.93188477 42.88183594 C33.96935701 39.90523715 32.82714132 37.64146767 31.12109375 35.0234375 C30.53328125 34.11062012 29.94546875 33.19780273 29.33984375 32.25732422 C28.71207031 31.30615723 28.08429688 30.35499023 27.4375 29.375 C26.80070312 28.3967627 26.16390625 27.41852539 25.5078125 26.41064453 C24.24617869 24.47547557 22.98049839 22.54293766 21.71044922 20.61328125 C20.2835594 18.43323149 18.88388627 16.24109476 17.50390625 14.03125 C16.51197266 12.46890625 16.51197266 12.46890625 15.5 10.875 C14.9534375 10.00617187 14.406875 9.13734375 13.84375 8.2421875 C10.73527433 4.46196497 7.38737676 2.30830595 2.625 1.25 C1.75875 1.1675 0.8925 1.085 0 1 C0 0.67 0 0.34 0 0 Z " fill="#070707" transform="translate(73,4)"/>
<path d="M0 0 C8.58 0 17.16 0 26 0 C26 0.33 26 0.66 26 1 C25.05125 1.28875 24.1025 1.5775 23.125 1.875 C19.94788422 2.76825109 19.94788422 2.76825109 18 5 C17.6724619 7.46198983 17.6724619 7.46198983 17.69360352 10.36083984 C17.67761612 11.4831601 17.66162872 12.60548035 17.64515686 13.7618103 C17.63979416 14.98252228 17.63443146 16.20323425 17.62890625 17.4609375 C17.61987778 18.71701813 17.6108493 19.97309875 17.60154724 21.26724243 C17.58700637 23.93563115 17.5773544 26.60359092 17.57446289 29.27197266 C17.56912483 32.65892342 17.53165213 36.04465513 17.48571873 39.43126488 C17.44840873 42.69108064 17.44741134 45.95093726 17.44140625 49.2109375 C17.42187393 50.41140717 17.40234161 51.61187683 17.38221741 52.84872437 C17.43217869 62.33375092 19.58137805 70.94737071 25.5 78.5625 C30.9184353 83.84547442 36.70297942 86.28385241 44.25 86.375 C53.16195033 86.22394999 59.73050998 83.26949002 66 77 C72.18829252 68.06135524 72.30904447 58.57585999 72.30078125 47.9765625 C72.30720894 46.14186905 72.30720894 46.14186905 72.31376648 44.27011108 C72.31948318 41.70009987 72.32002978 39.13007248 72.31567383 36.56005859 C72.31249321 32.61658615 72.33607833 28.67384974 72.36132812 24.73046875 C72.36359922 22.22916761 72.3643055 19.72786446 72.36328125 17.2265625 C72.372491 16.04534821 72.38170074 14.86413391 72.39118958 13.64712524 C72.38184639 12.00929581 72.38184639 12.00929581 72.37231445 10.33837891 C72.37294388 9.3773526 72.3735733 8.41632629 72.3742218 7.42617798 C71.93340669 4.56825815 71.30466738 3.69458384 69 2 C66.39388923 1.27802838 66.39388923 1.27802838 64 1 C64 0.67 64 0.34 64 0 C71.59 0 79.18 0 87 0 C85.68 0.66 84.36 1.32 83 2 C82.01 2.66 81.02 3.32 80 4 C79.54357687 6.36787282 79.54357687 6.36787282 79.61523438 9.16137695 C79.60512329 10.24042801 79.59501221 11.31947906 79.58459473 12.43122864 C79.58761597 13.605056 79.59063721 14.77888336 79.59375 15.98828125 C79.57749573 17.80225655 79.57749573 17.80225655 79.56091309 19.65287781 C79.52652799 23.53947193 79.51105071 27.42577361 79.5 31.3125 C79.48533812 36.39220487 79.45137273 41.47126557 79.40625 46.55078125 C79.40927124 47.70234207 79.41229248 48.85390289 79.41540527 50.0403595 C79.29057078 63.79074238 77.02263114 73.81016335 67.375 83.6875 C58.16337483 90.74015052 48.51289723 91.92504316 37.33984375 90.7109375 C27.83141782 89.21192754 19.98137073 84.55050954 14 77 C10.36898522 71.10649881 8.8852054 66.0101266 8.84228516 59.08569336 C8.83202301 57.89443344 8.82176086 56.70317352 8.81118774 55.47581482 C8.80388641 54.19344437 8.79658508 52.91107391 8.7890625 51.58984375 C8.76818536 49.57487656 8.747291 47.55990937 8.72536278 45.54495335 C8.67220374 40.57715502 8.62789208 35.60935512 8.59863281 30.64135742 C8.58176036 27.85122172 8.5571001 25.06136517 8.52377319 22.27137756 C8.49270236 19.64277939 8.47336298 17.01401202 8.46670532 14.38523865 C8.45013885 13.19713089 8.43357239 12.00902313 8.41650391 10.78491211 C8.40841705 9.73774521 8.4003302 8.69057831 8.39199829 7.61167908 C8.20721364 4.97857579 8.20721364 4.97857579 6.64193726 3.18141174 C4.50710902 1.64535357 2.57969174 1.34860699 0 1 C0 0.67 0 0.34 0 0 Z " fill="#070707" transform="translate(404,4)"/>
<path d="M0 0 C5.53179027 -0.07462464 11.06328205 -0.12882498 16.59545898 -0.16479492 C18.4740917 -0.17980333 20.35268984 -0.20021652 22.23120117 -0.22631836 C24.94458593 -0.26305386 27.6575041 -0.27980607 30.37109375 -0.29296875 C31.61384315 -0.31619453 31.61384315 -0.31619453 32.88169861 -0.33988953 C39.78607 -0.34184476 45.77811814 1.09616072 51.75 4.625 C57.2896186 10.47237519 59.33545586 15.42134573 59.5625 23.5625 C59.22360285 32.26086028 57.43189335 36.95473613 51.125 42.875 C45.90622356 47.41765966 40.6663714 48.27933638 33.875 48.25 C32.67617187 48.25515625 31.47734375 48.2603125 30.2421875 48.265625 C27.21629313 48.0177204 25.53674239 47.59019672 23 46 C23 45.67 23 45.34 23 45 C23.67804688 44.98582031 24.35609375 44.97164062 25.0546875 44.95703125 C32.20808157 44.59044457 38.13028081 43.27682142 44 39 C49.17744772 32.75419005 49.59809531 25.76436454 49 18 C47.78863723 12.86840021 44.98716828 9.38909304 41 6 C38.2097333 5.0699111 36.23470458 4.81301231 33.33203125 4.68359375 C32.43935547 4.64169922 31.54667969 4.59980469 30.62695312 4.55664062 C29.69818359 4.51732422 28.76941406 4.47800781 27.8125 4.4375 C26.87212891 4.39431641 25.93175781 4.35113281 24.96289062 4.30664062 C22.64207146 4.20061335 20.32114675 4.09854971 18 4 C18.06123266 13.95338161 18.13835446 23.90650148 18.23571491 33.85959911 C18.28042607 38.48133282 18.31968055 43.10297822 18.34643555 47.72485352 C18.3724611 52.18595208 18.41285817 56.64671098 18.46318626 61.10759926 C18.47986005 62.80877772 18.49137115 64.51001494 18.49761391 66.21126366 C18.50724957 68.59587514 18.53530134 70.97961666 18.56762695 73.36401367 C18.56547432 74.4170594 18.56547432 74.4170594 18.5632782 75.49137878 C18.64585481 79.80366884 19.29979793 82.60127227 22 86 C25.07561246 87.35980881 25.07561246 87.35980881 28 88 C28 88.33 28 88.66 28 89 C18.76 89 9.52 89 0 89 C3 87 3 87 5.625 85.5625 C8.29046993 84.15982726 8.29046993 84.15982726 9 81 C9.1102479 78.65044532 9.15909259 76.29787244 9.17700195 73.94580078 C9.18685875 72.87454453 9.18685875 72.87454453 9.19691467 71.78164673 C9.21661689 69.41953422 9.22830225 67.05748514 9.23828125 64.6953125 C9.24439454 63.48418604 9.24439454 63.48418604 9.25063133 62.24859238 C9.27147717 57.9764405 9.2857863 53.70432062 9.29516602 49.43212891 C9.30623821 45.02133413 9.34065127 40.61104277 9.38033772 36.2004261 C9.40648512 32.80662093 9.41485607 29.4129362 9.41844749 26.01903915 C9.42331694 24.39314238 9.43494119 22.7672511 9.45348549 21.14145279 C9.47784225 18.86489167 9.47691921 16.58963989 9.4699707 14.31298828 C9.47583694 13.0185379 9.48170319 11.72408752 9.48774719 10.39041138 C8.91710774 6.4238022 7.84171025 4.77700772 5 2 C2.36539052 1.12056596 2.36539052 1.12056596 0 1 C0 0.67 0 0.34 0 0 Z " fill="#040404" transform="translate(164,4)"/>
<path d="M0 0 C0 4.95 0 9.9 0 15 C-0.66 13.68 -1.32 12.36 -2 11 C-3.11530938 8.71517662 -3.11530938 8.71517662 -5 7 C-8.09010736 6.354631 -8.09010736 6.354631 -11.63671875 6.390625 C-12.80678467 6.36000977 -13.97685059 6.32939453 -15.18237305 6.29785156 C-17.41241089 6.27416504 -17.41241089 6.27416504 -19.6875 6.25 C-24.410625 6.1675 -29.13375 6.085 -34 6 C-34 18.87 -34 31.74 -34 45 C-30.266875 44.87625 -26.53375 44.7525 -22.6875 44.625 C-21.51405029 44.59100098 -20.34060059 44.55700195 -19.1315918 44.52197266 C-18.20515869 44.4863623 -17.27872559 44.45075195 -16.32421875 44.4140625 C-15.37635498 44.3826416 -14.42849121 44.3512207 -13.4519043 44.31884766 C-10.7469731 44.1510949 -10.7469731 44.1510949 -8 42 C-7.27034634 39.43717258 -7.27034634 39.43717258 -7 37 C-6.67 37 -6.34 37 -6 37 C-6 43.6 -6 50.2 -6 57 C-6.33 57 -6.66 57 -7 57 C-7.309375 56.030625 -7.61875 55.06125 -7.9375 54.0625 C-8.69523342 51.15934208 -8.69523342 51.15934208 -10 50 C-11.77869726 49.84235595 -13.56318476 49.74899323 -15.34765625 49.68359375 C-16.80570679 49.62643188 -16.80570679 49.62643188 -18.29321289 49.56811523 C-19.53707764 49.52501221 -20.78094238 49.48190918 -22.0625 49.4375 C-26.001875 49.293125 -29.94125 49.14875 -34 49 C-34 61.54 -34 74.08 -34 87 C-28.06 86.87625 -28.06 86.87625 -22 86.75 C-20.76765625 86.73420898 -19.5353125 86.71841797 -18.265625 86.70214844 C-10.7727454 86.47163563 -4.73329302 85.61208221 0.8046875 80.25390625 C1.33449219 79.41666016 1.33449219 79.41666016 1.875 78.5625 C2.25785156 77.964375 2.64070312 77.36625 3.03515625 76.75 C4.23989317 74.56489012 5.21099632 72.36701105 6 70 C6.66 70 7.32 70 8 70 C4.5 80.5 4.5 80.5 1 91 C-16.49 91 -33.98 91 -52 91 C-48 89 -48 89 -45 88 C-43.8188077 84.45642311 -43.83689135 81.23531326 -43.82299805 77.546875 C-43.81642685 76.79047729 -43.80985565 76.03407959 -43.80308533 75.25476074 C-43.7833823 72.75317282 -43.77169938 70.2516447 -43.76171875 67.75 C-43.75764322 66.89595581 -43.7535677 66.04191162 -43.74936867 65.1619873 C-43.72852548 60.64575442 -43.71421351 56.12955181 -43.70483398 51.61328125 C-43.69374441 46.94223023 -43.65931062 42.27165231 -43.61966228 37.60076904 C-43.59356826 34.01317435 -43.58514885 30.42569395 -43.58155251 26.8380127 C-43.57667154 25.1155679 -43.56501483 23.39312872 -43.54651451 21.67077637 C-43.52226475 19.2645053 -43.5230609 16.85947986 -43.5300293 14.453125 C-43.51081421 13.38233704 -43.51081421 13.38233704 -43.49121094 12.28991699 C-43.52435751 9.15803502 -43.55366611 7.46174715 -45.77937317 5.15917969 C-46.51218002 4.77665039 -47.24498688 4.39412109 -48 4 C-48.7425 3.608125 -49.485 3.21625 -50.25 2.8125 C-50.8275 2.544375 -51.405 2.27625 -52 2 C-50.13867432 1.96241577 -50.13867432 1.96241577 -48.23974609 1.92407227 C-43.62148293 1.82966659 -39.00335857 1.72952766 -34.38525391 1.62768555 C-32.38919327 1.58446185 -30.39309864 1.54277826 -28.39697266 1.50268555 C-25.52235691 1.44467761 -22.64791025 1.38107209 -19.7734375 1.31640625 C-18.44184097 1.29133751 -18.44184097 1.29133751 -17.08334351 1.26576233 C-11.32952612 1.12920992 -5.72357463 0 0 0 Z " fill="#0E0E0E" transform="translate(639,2)"/>
<path d="M0 0 C0 4.95 0 9.9 0 15 C-0.33 15 -0.66 15 -1 15 C-1.28875 14.05125 -1.5775 13.1025 -1.875 12.125 C-2.76825109 8.94788422 -2.76825109 8.94788422 -5 7 C-8.00972657 6.62703444 -8.00972657 6.62703444 -11.5390625 6.5859375 C-13.29790771 6.53252197 -13.29790771 6.53252197 -15.09228516 6.47802734 C-16.58808105 6.44402832 -18.08387695 6.4100293 -19.625 6.375 C-24.36875 6.25125 -29.1125 6.1275 -34 6 C-34 18.87 -34 31.74 -34 45 C-30.101875 44.896875 -26.20375 44.79375 -22.1875 44.6875 C-20.96184326 44.66260498 -19.73618652 44.63770996 -18.47338867 44.61206055 C-17.02283081 44.56239136 -17.02283081 44.56239136 -15.54296875 44.51171875 C-14.55321045 44.48553467 -13.56345215 44.45935059 -12.54370117 44.43237305 C-9.58585396 43.92960432 -8.76867614 43.37658469 -7 41 C-6.34 39.68 -5.68 38.36 -5 37 C-5 43.6 -5 50.2 -5 57 C-7 53 -7 53 -8 50 C-20.87 49.505 -20.87 49.505 -34 49 C-34 61.54 -34 74.08 -34 87 C-28.06 86.87625 -28.06 86.87625 -22 86.75 C-20.76765625 86.73420898 -19.5353125 86.71841797 -18.265625 86.70214844 C-10.42186204 86.46084096 -4.44567769 85.54139095 1.25 79.6875 C3.31092378 76.52250991 5.18220422 73.31098517 7 70 C8 73 8 73 1 91 C-16.49 91 -33.98 91 -52 91 C-49 89 -49 89 -46.375 87.5625 C-43.70953007 86.15982726 -43.70953007 86.15982726 -43 83 C-42.8897521 80.65044532 -42.84090741 78.29787244 -42.82299805 75.94580078 C-42.81314125 74.87454453 -42.81314125 74.87454453 -42.80308533 73.78164673 C-42.78338311 71.41953422 -42.77169775 69.05748514 -42.76171875 66.6953125 C-42.75764322 65.88789486 -42.7535677 65.08047722 -42.74936867 64.24859238 C-42.72852283 59.9764405 -42.7142137 55.70432062 -42.70483398 51.43212891 C-42.69376179 47.02133413 -42.65934873 42.61104277 -42.61966228 38.2004261 C-42.59351488 34.80662093 -42.58514393 31.4129362 -42.58155251 28.01903915 C-42.57668306 26.39314238 -42.56505881 24.7672511 -42.54651451 23.14145279 C-42.52215775 20.86489167 -42.52308079 18.58963989 -42.5300293 16.31298828 C-42.52416306 15.0185379 -42.51829681 13.72408752 -42.51225281 12.39041138 C-43.08289226 8.4238022 -44.15828975 6.77700772 -47 4 C-49.63460948 3.12056596 -49.63460948 3.12056596 -52 3 C-52 2.67 -52 2.34 -52 2 C-50.83017578 1.97494385 -49.66035156 1.9498877 -48.45507812 1.92407227 C-44.08649018 1.82941271 -39.71803972 1.72933847 -35.34960938 1.62768555 C-33.46422558 1.58455691 -31.57880826 1.54286778 -29.69335938 1.50268555 C-26.97255376 1.4444442 -24.25191352 1.38090932 -21.53125 1.31640625 C-20.69758911 1.29969376 -19.86392822 1.28298126 -19.00500488 1.26576233 C-12.63560735 1.10700834 -6.3496939 0 0 0 Z " fill="#050505" transform="translate(58,2)"/>
<path d="M0 0 C0 5.28 0 10.56 0 16 C-0.33 16 -0.66 16 -1 16 C-1.226875 15.113125 -1.45375 14.22625 -1.6875 13.3125 C-3.19110199 9.51769499 -4.91505286 7.63349146 -8 5 C-13.62994973 3.12335009 -19.09029508 3.06250849 -24.4375 5.6875 C-28.45158067 9.30996304 -30.15272551 11.96428473 -30.4375 17.375 C-30.20863031 22.90449181 -28.29868659 26.85109921 -24.29150391 30.59716797 C-23.65132324 31.14002441 -23.01114258 31.68288086 -22.3515625 32.2421875 C-18.09997322 35.89979055 -13.97238082 39.67104104 -9.875 43.5 C-9.19824219 44.12519531 -8.52148438 44.75039063 -7.82421875 45.39453125 C4.66433036 57.06178312 4.66433036 57.06178312 5.203125 64.98828125 C5.31780984 73.12134797 4.70147978 77.85129891 0.25 84.6875 C-5.07182596 90.15715445 -11.06592264 92.12283959 -18.5625 92.3125 C-25.90217564 92.25859785 -31.8202548 90.12903546 -38.29296875 86.83203125 C-40.47572262 84.48944186 -40.44049222 82.67870529 -40.40039062 79.55078125 C-40.37138672 78.87402344 -40.34238281 78.19726562 -40.3125 77.5 C-40.30283203 76.82324219 -40.29316406 76.14648438 -40.28320312 75.44921875 C-40.21382809 72.39068438 -39.97259947 69.91779841 -39 67 C-38.34 67 -37.68 67 -37 67 C-36.90203125 67.72445312 -36.8040625 68.44890625 -36.703125 69.1953125 C-35.80896941 74.9764909 -35.03291202 79.51898664 -31 84 C-26.20279645 87.34688619 -21.66394261 87.73019469 -16 87 C-11.46449488 85.77274567 -7.94146599 83.70406828 -5 80 C-2.56033424 75.73058492 -2.10750433 70.79527332 -3 66 C-5.48403686 60.88784061 -8.1219009 57.58938116 -12.4375 53.8125 C-13.49903886 52.86887299 -14.56022357 51.92484746 -15.62109375 50.98046875 C-16.1713623 50.49626465 -16.72163086 50.01206055 -17.28857422 49.51318359 C-20.22375332 46.91799956 -23.11275774 44.27325261 -26 41.625 C-26.53939209 41.13749268 -27.07878418 40.64998535 -27.63452148 40.14770508 C-32.96243546 35.27209004 -37.38646638 30.77272083 -38.3359375 23.38671875 C-38.44229333 16.03753121 -37.48603723 10.70907753 -32.3515625 5.24609375 C-23.11935891 -3.1193309 -11.68719391 -1.86995103 0 0 Z " fill="#0A0A0A" transform="translate(385,3)"/>
<path d="M0 0 C0.66 0 1.32 0 2 0 C2.1875 2.875 2.1875 2.875 2 6 C1.01 6.66 0.02 7.32 -1 8 C-0.67 5.36 -0.34 2.72 0 0 Z " fill="#363636" transform="translate(346,70)"/>
</svg>
