<?xml version="1.0" encoding="UTF-8"?>
<svg version="1.1" xmlns="http://www.w3.org/2000/svg" width="1098" height="1116">
<path d="M0 0 C362.34 0 724.68 0 1098 0 C1098 368.28 1098 736.56 1098 1116 C735.66 1116 373.32 1116 0 1116 C0 747.72 0 379.44 0 0 Z " fill="#000000" transform="translate(0,0)"/>
<path d="M0 0 C227.7 0 455.4 0 690 0 C690 191.4 690 382.8 690 580 C689.34 580 688.68 580 688 580 C688.00092179 580.95742159 688.00184359 581.91484318 688.00279331 582.90127754 C688.02520987 606.43418839 688.04152693 629.96709782 688.05181217 653.50001717 C688.056921 664.88136301 688.06385741 676.26270172 688.07543945 687.64404297 C688.08555498 697.58920735 688.09189251 707.53436655 688.09408849 717.47953594 C688.09536769 722.72249996 688.09826836 727.96544919 688.10573006 733.20840836 C688.14534579 762.15232515 687.75080468 791.06567566 687 820 C685.11234343 819.06618373 683.22585439 818.13000716 681.33984375 817.19287109 C680.28917725 816.67179779 679.23851074 816.15072449 678.15600586 815.61386108 C673.32248713 813.14218387 668.66668257 810.39536579 664 807.625 C661.89389091 806.38559357 659.78709129 805.14735997 657.6796875 803.91015625 C656.58881836 803.26965332 655.49794922 802.62915039 654.37402344 801.96923828 C648.64731624 798.62686345 642.88626968 795.34477332 637.125 792.0625 C634.75238697 790.71001604 632.37999906 789.35713807 630.0078125 788.00390625 C629.42219543 787.66983765 628.83657837 787.33576904 628.23321533 786.99157715 C622.14347002 783.51515521 616.07108241 780.0088767 610 776.5 C601.01459169 771.30759561 592.01363123 766.14318892 583 761 C572.91266526 755.24415456 562.84485047 749.45535763 552.7890625 743.64453125 C544.87266209 739.07295377 536.9399247 734.53053067 529 730 C518.91266526 724.24415456 508.84485047 718.45535763 498.7890625 712.64453125 C490.87266209 708.07295377 482.9399247 703.53053067 475 699 C464.91266526 693.24415456 454.84485047 687.45535763 444.7890625 681.64453125 C436.87266209 677.07295377 428.9399247 672.53053067 421 668 C410.92805289 662.25293476 400.87524743 656.47356736 390.83520508 650.67089844 C381.26621282 645.14432766 371.67279181 639.66100352 362.07226562 634.18945312 C360.95916016 633.55458984 359.84605469 632.91972656 358.69921875 632.265625 C357.71783936 631.70649414 356.73645996 631.14736328 355.7253418 630.57128906 C353.89835111 629.51794211 352.09307378 628.42606903 350.31103516 627.29833984 C348.052899 625.7879937 348.052899 625.7879937 345.32421875 625.9609375 C340.41369584 627.49583655 336.23465648 630.02688858 331.8125 632.625 C329.74152605 633.81882035 327.66988408 635.01148245 325.59765625 636.203125 C324.51629395 636.82767578 323.43493164 637.45222656 322.32080078 638.09570312 C316.82851917 641.245225 311.28916021 644.3089164 305.75 647.375 C303.46872388 648.64057792 301.18747409 649.90620331 298.90625 651.171875 C295.45194293 653.08680514 291.99745576 655.00141011 288.54296875 656.91601562 C276.87980826 663.38160686 265.2235577 669.85657037 253.625 676.4375 C244.33348396 681.7094325 234.98852059 686.88060541 225.62854004 692.02947998 C217.5168003 696.49292696 209.42785236 700.99337545 201.375 705.5625 C189.77358985 712.14504809 178.11434617 718.62133542 166.44824219 725.08837891 C160.75586879 728.24409143 155.06510384 731.4026973 149.375 734.5625 C148.25641602 735.18366699 147.13783203 735.80483398 145.98535156 736.44482422 C137.45193144 741.18657535 128.93263124 745.9531821 120.41796875 750.72851562 C112.74853779 755.02745896 105.06399371 759.29866306 97.375 763.5625 C89.1033386 768.14996129 80.85124893 772.76911458 72.625 777.4375 C63.33802389 782.70696643 53.9989266 787.87833035 44.64163208 793.02142334 C35.35842682 798.12440738 26.11430293 803.29010232 16.93359375 808.57617188 C11.917424 811.44091102 6.83660636 814.11807806 1.66381836 816.68530273 C1.0203521 817.00579338 0.37688583 817.32628403 -0.28607941 817.65648651 C-1.85688069 818.43867381 -3.42836947 819.21948023 -5 820 C-5.04700559 789.8556341 -4.94503681 759.71609288 -4.67648709 729.57294691 C-4.62791103 724.06675132 -4.58175945 718.56053527 -4.5353241 713.05432129 C-4.4545861 703.51097974 -4.37256595 693.96764995 -4.28978157 684.42432594 C-4.15611998 668.99992585 -4.02692756 653.57548953 -3.89830017 638.15104675 C-3.85913565 633.4598138 -3.81995449 628.76858099 -3.78076466 624.07734825 C-3.76945971 622.72408163 -3.75815571 621.370815 -3.74685263 620.01754836 C-3.61391977 604.10308297 -3.4801798 588.18862441 -3.34594727 572.27416992 C-3.33717435 571.23384243 -3.33717435 571.23384243 -3.3282242 570.17249822 C-3.17473387 551.97338847 -3.01959642 533.77429384 -2.86211014 515.5752182 C-1.37772311 343.71505305 -0.62271141 171.86834844 0 0 Z " fill="#FEFEFE" transform="translate(235,175)"/>
<path d="M0 0 C227.7 0 455.4 0 690 0 C690 16.17 690 32.34 690 49 C481.11 49 272.22 49 57 49 C57 140.08 57 231.16 57 325 C56.47146278 406.95158335 55.91390784 488.89974788 55.17711163 570.84926438 C55.01557418 588.83940468 54.86116746 606.82960261 54.70898438 624.81982422 C54.70300815 625.52606878 54.69703193 626.23231335 54.69087461 626.95995926 C54.63077027 634.06347321 54.57076578 641.16698799 54.51083381 648.27050339 C54.38914584 662.69346304 54.26679905 677.11641708 54.14404297 691.53936768 C54.132813 692.85886631 54.12158304 694.17836494 54.11001277 695.53784838 C53.75096312 737.69199455 53.37682024 779.84600939 53 822 C52.67 822 52.34 822 52 822 C52 811.11 52 800.22 52 789 C38.86956054 796.07023663 25.77803472 803.17676572 12.84155273 810.59643555 C11.51619507 811.35307495 11.51619507 811.35307495 10.1640625 812.125 C9.40561035 812.56070313 8.6471582 812.99640625 7.86572266 813.4453125 C5.20831716 814.88698554 2.5264623 816.24865617 -0.17910767 817.59716797 C-1.081374 818.04720184 -1.98364033 818.49723572 -2.91324806 818.96090698 C-3.6018762 819.30380768 -4.29050434 819.64670837 -5 820 C-5.11094728 776.18537811 -4.82472677 732.37808449 -4.45113165 688.5653646 C-4.36865788 678.88484018 -4.28882309 669.20429439 -4.20900106 659.52374781 C-4.06571157 642.15684693 -3.92012564 624.78996611 -3.77319336 607.4230957 C-3.63273781 590.82154771 -3.49399321 574.2199866 -3.35717773 557.6184082 C-3.18179882 536.33792116 -3.00486991 515.05744752 -2.82672139 493.77698348 C-2.77891847 488.06272599 -2.73141713 482.34846611 -2.68421806 476.6342036 C-2.65370863 472.94260822 -2.62305762 469.25101402 -2.59239347 465.55941992 C-2.5786343 463.89899903 -2.56493296 462.23857766 -2.55131053 460.57815564 C-2.1393559 410.38392947 -1.56396681 360.19304566 -1 310 C-0.67 207.7 -0.34 105.4 0 0 Z " fill="#832BDB" transform="translate(178,126)"/>
<path d="M0 0 C362.34 0 724.68 0 1098 0 C1098 368.28 1098 736.56 1098 1116 C735.66 1116 373.32 1116 0 1116 C0 747.72 0 379.44 0 0 Z M16.6875 17.125 C16.07261719 17.64320312 15.45773438 18.16140625 14.82421875 18.6953125 C7.89106955 27.4545374 8.43516295 37.03886093 8.49663544 47.67073154 C8.49246069 49.48996924 8.48653406 51.30920361 8.47901797 53.12843058 C8.46342191 58.13779891 8.47277177 63.14685943 8.48612978 68.15622282 C8.49626345 73.60213217 8.48324216 79.04799381 8.47315645 84.49389642 C8.45869484 94.04191662 8.45915706 103.5898464 8.46934509 113.13787079 C8.48445376 127.33587841 8.47675117 141.53380952 8.46451186 155.73181661 C8.44425952 179.61625975 8.44393808 203.50067091 8.45481873 227.38511848 C8.45514991 228.11245222 8.45548109 228.83978596 8.45582231 229.58916011 C8.45615403 230.31765661 8.45648574 231.0461531 8.45682751 231.79672524 C8.46691734 253.98438054 8.46952716 276.17202116 8.46473694 298.35967827 C8.46442702 299.84505264 8.4641184 301.33042701 8.46381106 302.81580138 C8.46256921 308.78478767 8.46129454 314.75377395 8.459972 320.72276022 C8.45630386 337.40879079 8.45402154 354.0948214 8.45282745 370.78085232 C8.45277287 371.54071185 8.45271829 372.30057139 8.45266205 373.08345697 C8.45102479 397.29814084 8.4555333 421.5128196 8.46422577 445.72750187 C8.46450677 446.51295805 8.46478776 447.29841424 8.46507727 448.10767212 C8.46965715 460.86324913 8.47453496 473.61882602 8.47943797 486.3744029 C8.49886452 536.96812196 8.49796103 587.56179869 8.47851562 638.15551758 C8.47363094 650.90582557 8.46878677 663.65613357 8.46422577 676.40644169 C8.46394398 677.1915044 8.46366218 677.97656712 8.46337185 678.78541961 C8.45474841 702.97559402 8.45108977 727.16576492 8.45282745 751.35594082 C8.45288179 752.11523 8.45293613 752.87451918 8.45299211 753.65681713 C8.45424197 770.32364608 8.45677641 786.99047465 8.46046947 803.65730323 C8.46178606 809.62066118 8.46303837 815.58401914 8.46427231 821.5473771 C8.46458186 823.03092925 8.46489678 824.51448139 8.46521709 825.99803353 C8.46999333 848.18098999 8.46592209 870.36392991 8.45582231 892.54688431 C8.45549112 893.27430084 8.45515994 894.00171738 8.45481873 894.75117683 C8.454488 895.47725374 8.45415727 896.20333064 8.45381652 896.95140987 C8.44278948 921.42759824 8.44683761 945.90374375 8.4679417 970.37992603 C8.47971217 984.49776794 8.48041715 998.6155089 8.465357 1012.73334824 C8.45641397 1022.15380511 8.46192152 1031.57418073 8.47937608 1040.99462553 C8.48892615 1046.36849258 8.49207259 1051.7421585 8.47775215 1057.11601949 C8.46486545 1062.00148563 8.47026987 1066.88657154 8.49047479 1071.77200977 C8.49451472 1073.53149004 8.49180936 1075.29100152 8.48165104 1077.0504571 C8.3407784 1090.60039619 8.3407784 1090.60039619 14.89453125 1102.20703125 C15.84392578 1103.00173828 15.84392578 1103.00173828 16.8125 1103.8125 C17.43769531 1104.35519531 18.06289063 1104.89789062 18.70703125 1105.45703125 C24.28482887 1109.21040443 28.85149881 1110.37499928 35.54793066 1110.37604749 C36.64629134 1110.38235792 36.64629134 1110.38235792 37.76684112 1110.38879583 C40.22072125 1110.39923588 42.67403408 1110.3883259 45.12790585 1110.37752342 C46.91240742 1110.3806531 48.69690708 1110.38509705 50.48140249 1110.39073652 C55.40360967 1110.40245314 60.32564108 1110.39541082 65.2478455 1110.38540266 C70.59583479 1110.37781189 75.94379654 1110.38756462 81.29178196 1110.39513266 C90.6709801 1110.40598585 100.05012647 1110.40562792 109.42932701 1110.39799118 C123.3763385 1110.38666598 137.32330614 1110.39243337 151.27031732 1110.4016161 C174.73186334 1110.41651583 198.19338756 1110.41704431 221.65493584 1110.40888596 C222.72689862 1110.40851338 222.72689862 1110.40851338 223.82051722 1110.40813327 C224.53630069 1110.40788448 225.25208415 1110.40763569 225.98955803 1110.40737936 C247.78586302 1110.39981342 269.58215962 1110.39785396 291.37846565 1110.4014473 C292.83737223 1110.40167973 294.29627882 1110.4019112 295.7551854 1110.40214171 C301.61776232 1110.40307309 307.48033924 1110.40402909 313.34291615 1110.405021 C329.73190436 1110.40777219 346.1208926 1110.40948387 362.50988102 1110.41037941 C363.62941131 1110.41044082 363.62941131 1110.41044082 364.77155837 1110.41050346 C388.55816085 1110.41173153 412.3447604 1110.40834945 436.13136196 1110.40183067 C436.90300081 1110.40161993 437.67463965 1110.40140918 438.46966149 1110.40119205 C451.00100052 1110.3977571 463.53233948 1110.39409876 476.06367843 1110.39042152 C525.76357043 1110.37585298 575.46343819 1110.37652777 625.16333008 1110.39111328 C637.68711819 1110.39477679 650.2109063 1110.39840991 662.73469448 1110.40183067 C663.50580684 1110.40204202 664.2769192 1110.40225336 665.0713986 1110.40247111 C688.8320414 1110.40893878 712.59268219 1110.41168265 736.35332584 1110.41037941 C737.09914653 1110.41033866 737.84496721 1110.4102979 738.61338852 1110.41025592 C754.9847065 1110.40931852 771.35602428 1110.40741767 787.72734205 1110.4046479 C793.58503009 1110.40366046 799.44271815 1110.40272122 805.3004062 1110.40179577 C806.75767744 1110.4015636 808.21494868 1110.40132741 809.67221992 1110.40108718 C831.46262962 1110.39750494 853.25302984 1110.40055858 875.04343835 1110.40813327 C875.75799742 1110.40838166 876.47255648 1110.40863004 877.20876884 1110.40888596 C877.92201262 1110.409134 878.6352564 1110.40938205 879.37011362 1110.40963761 C903.4146439 1110.4179082 927.45914629 1110.4148712 951.50367361 1110.39904372 C965.3726506 1110.39021613 979.2415698 1110.38968677 993.11054534 1110.40098225 C1002.36518328 1110.40768988 1011.61977471 1110.40355818 1020.87440573 1110.39046794 C1026.1535779 1110.3833059 1031.43263491 1110.38094465 1036.71180361 1110.39168589 C1041.51133886 1110.40135203 1046.31065643 1110.39729566 1051.11017571 1110.38214391 C1052.83857589 1110.37911439 1054.56699395 1110.38114181 1056.29537999 1110.38876172 C1058.6394242 1110.39836516 1060.98271092 1110.38948882 1063.32672018 1110.37604749 C1064.62540848 1110.37584421 1065.92409679 1110.37564094 1067.26213929 1110.3754315 C1073.83908377 1109.71484184 1079.94094286 1107.28920062 1085 1103 C1089.43342989 1096.59384954 1092.15167087 1091.74509631 1092.12880117 1083.96520799 C1092.13057618 1083.22767694 1092.13235119 1082.49014588 1092.13417998 1081.7302654 C1092.1389573 1079.22836939 1092.13653801 1076.72653012 1092.13422108 1074.22463131 C1092.13617234 1072.41726976 1092.13856054 1070.60990865 1092.14134905 1068.8025482 C1092.14778046 1063.79360136 1092.14790818 1058.78467049 1092.14707164 1053.7757203 C1092.14724052 1048.34232833 1092.15313971 1042.90894219 1092.1583125 1037.4755531 C1092.16766081 1026.67998317 1092.17156429 1015.88441734 1092.17383147 1005.08884387 C1092.17678775 992.16579265 1092.18548175 979.24274691 1092.19424575 966.31969856 C1092.21511456 935.07941259 1092.22556702 903.83912565 1092.23437535 872.59883433 C1092.23730827 862.25476055 1092.24067801 851.91068698 1092.24434257 841.56661344 C1092.24460086 840.83711776 1092.24485915 840.10762208 1092.24512527 839.35602047 C1092.24617146 836.40487931 1092.24721988 833.45373815 1092.24827109 830.502597 C1092.26623702 780.02120873 1092.28161685 729.53982013 1092.28903012 679.05842911 C1092.28961409 675.09205599 1092.29021136 671.12568287 1092.29080774 667.15930975 C1092.29092586 666.37249653 1092.29104398 665.58568331 1092.29116567 664.77502726 C1092.29236308 656.80332554 1092.29357184 648.83162382 1092.29479821 640.85992211 C1092.29504344 639.2615559 1092.2952873 637.6631897 1092.29552978 636.06482349 C1092.30332 584.72796607 1092.3257037 533.3911315 1092.3582062 482.05428407 C1092.38154797 445.17414277 1092.4031018 408.29400601 1092.41021252 371.41385746 C1092.41035954 370.65558384 1092.41050656 369.89731023 1092.41065803 369.11605862 C1092.41384269 352.47089727 1092.4158937 335.82573597 1092.41688558 319.18057435 C1092.41730033 312.48336468 1092.41785523 305.78615504 1092.41844749 299.08894539 C1092.41850816 298.35596567 1092.41856883 297.62298595 1092.41863134 296.86779473 C1092.42064831 273.2453454 1092.43489402 249.62292304 1092.4553925 226.00048312 C1092.47653617 201.54781524 1092.4833352 177.09518295 1092.47351871 152.64250731 C1092.46828977 138.53823594 1092.47424676 124.43407162 1092.49605338 110.32981558 C1092.50951064 100.91689076 1092.50852957 91.50404003 1092.49565142 82.09111455 C1092.4887209 76.7222371 1092.48820038 71.35356503 1092.50521151 65.9847055 C1092.52055509 61.10252296 1092.51755853 56.22071191 1092.49980123 51.33854069 C1092.49664582 49.58134765 1092.5002257 47.82412662 1092.51129298 46.0669656 C1092.57140666 35.85945594 1092.50079574 27.32988969 1085.625 19.1875 C1078.82048656 13.51707213 1073.6101227 10.75061593 1064.70802903 10.748151 C1063.97916341 10.74522214 1063.25029778 10.74229327 1062.49934532 10.73927566 C1060.04501428 10.73187034 1057.59093046 10.73876015 1055.13660049 10.74552441 C1053.35643932 10.74313563 1051.57627914 10.73987114 1049.796121 10.73580781 C1044.87666496 10.72714887 1039.95728475 10.73103033 1035.03782745 10.73686353 C1029.69624938 10.74101853 1024.35468554 10.7336406 1019.01311088 10.72771102 C1009.6420402 10.71892738 1000.27099137 10.71764457 990.8999176 10.72121429 C976.96489767 10.72650863 963.02989898 10.72043881 949.09488136 10.71213136 C923.48638247 10.69728525 897.87789377 10.69504416 872.2693915 10.69745174 C868.63936104 10.69779018 865.00933058 10.69811228 861.37930012 10.69841743 C860.29781605 10.69850899 860.29781605 10.69850899 859.19448381 10.69860241 C843.22454703 10.69987367 827.2546116 10.69727406 811.28467522 10.69389136 C807.63942453 10.69312062 803.99417383 10.69237589 800.34892313 10.69162634 C798.88596128 10.69132465 797.42299943 10.69102277 795.96003758 10.6907207 C794.8723 10.69049618 794.8723 10.69049618 793.76258792 10.69026713 C792.29581054 10.6899636 790.82903316 10.68965891 789.36225578 10.68935308 C747.73345853 10.68067789 706.10466246 10.67603768 664.47586441 10.68030071 C663.70476382 10.68037877 662.93366323 10.68045683 662.13919596 10.68053725 C653.54036088 10.68141007 644.94152581 10.68233933 636.34269074 10.68328788 C635.17814107 10.68341615 635.17814107 10.68341615 633.99006515 10.683547 C629.28052433 10.68406579 629.28052433 10.68406579 624.57098351 10.68458923 C574.91222388 10.69012499 525.25348283 10.68258383 475.59472656 10.66381836 C463.08312102 10.65909624 450.57151547 10.65441577 438.05990982 10.6499815 C437.28954668 10.64970818 436.51918355 10.64943485 435.72547608 10.64915325 C411.98653842 10.64078337 388.2476023 10.63610242 364.50866318 10.63527393 C363.76347772 10.63524757 363.01829227 10.6352212 362.25052544 10.63519404 C345.89277516 10.63465328 329.535025 10.63502565 313.17727475 10.63623375 C307.32431759 10.63665938 301.47136043 10.63702451 295.61840326 10.63736319 C294.16230474 10.63744849 292.70620621 10.63753743 291.25010769 10.63763001 C268.03792607 10.63907943 244.82575707 10.63194832 221.61357848 10.62062605 C197.5873852 10.60898261 173.56121787 10.60840585 149.53502396 10.62046947 C135.67737479 10.62711548 121.819785 10.62542703 107.96214054 10.61188096 C98.71370889 10.60366713 89.46532194 10.60629391 80.21689396 10.61785623 C74.94204916 10.62414321 69.66732062 10.62563512 64.39248231 10.61399289 C59.59568166 10.6035028 54.79909644 10.60676854 50.00230752 10.62109742 C48.27601236 10.62383041 46.54970011 10.62151774 44.82342099 10.61359027 C29.75529798 10.32289261 29.75529798 10.32289261 16.6875 17.125 Z " fill="#FCFCFC" transform="translate(0,0)"/>
</svg>
