<?xml version="1.0" encoding="UTF-8"?>
<svg xmlns="http://www.w3.org/2000/svg" xmlns:xlink="http://www.w3.org/1999/xlink" width="24px" height="24px" viewBox="0 0 24 24" version="1.1">
<g id="surface1">
<path style=" stroke:none;fill-rule:nonzero;fill:rgb(0%,0%,0%);fill-opacity:1;" d="M 0 0 C 7.921875 0 15.839844 0 24 0 C 24 7.921875 24 15.839844 24 24 C 16.078125 24 8.160156 24 0 24 C 0 16.078125 0 8.160156 0 0 Z M 0 0 "/>
<path style=" stroke:none;fill-rule:nonzero;fill:rgb(99.607843%,99.607843%,99.607843%);fill-opacity:1;" d="M 5.136719 3.761719 C 10.113281 3.761719 15.089844 3.761719 20.21875 3.761719 C 20.21875 7.878906 20.21875 11.996094 20.21875 16.238281 C 20.203125 16.238281 20.191406 16.238281 20.175781 16.238281 C 20.175781 16.257812 20.175781 16.277344 20.175781 16.300781 C 20.175781 16.804688 20.175781 17.3125 20.175781 17.816406 C 20.175781 18.0625 20.175781 18.308594 20.175781 18.550781 C 20.175781 18.765625 20.175781 18.980469 20.175781 19.191406 C 20.175781 19.304688 20.175781 19.417969 20.175781 19.53125 C 20.179688 20.152344 20.167969 20.777344 20.152344 21.398438 C 20.113281 21.378906 20.070312 21.359375 20.027344 21.335938 C 20.007812 21.328125 19.984375 21.316406 19.960938 21.304688 C 19.855469 21.25 19.753906 21.191406 19.648438 21.132812 C 19.605469 21.105469 19.558594 21.078125 19.511719 21.050781 C 19.488281 21.039062 19.464844 21.023438 19.441406 21.011719 C 19.316406 20.9375 19.1875 20.867188 19.0625 20.796875 C 19.011719 20.769531 18.960938 20.738281 18.90625 20.710938 C 18.894531 20.703125 18.882812 20.695312 18.867188 20.6875 C 18.734375 20.613281 18.601562 20.539062 18.46875 20.460938 C 18.273438 20.351562 18.078125 20.238281 17.878906 20.128906 C 17.660156 20.003906 17.4375 19.878906 17.21875 19.753906 C 17.046875 19.65625 16.871094 19.558594 16.699219 19.460938 C 16.480469 19.339844 16.257812 19.214844 16.039062 19.089844 C 15.867188 18.992188 15.691406 18.894531 15.519531 18.796875 C 15.296875 18.671875 15.078125 18.546875 14.859375 18.421875 C 14.6875 18.324219 14.511719 18.226562 14.339844 18.128906 C 14.117188 18.003906 13.898438 17.882812 13.679688 17.757812 C 13.46875 17.636719 13.261719 17.519531 13.050781 17.402344 C 13.027344 17.386719 13.003906 17.375 12.976562 17.359375 C 12.957031 17.347656 12.933594 17.335938 12.910156 17.324219 C 12.871094 17.300781 12.832031 17.277344 12.792969 17.253906 C 12.746094 17.222656 12.746094 17.222656 12.683594 17.226562 C 12.578125 17.257812 12.484375 17.3125 12.390625 17.367188 C 12.34375 17.394531 12.296875 17.417969 12.253906 17.445312 C 12.230469 17.457031 12.207031 17.472656 12.183594 17.484375 C 12.0625 17.554688 11.941406 17.621094 11.820312 17.683594 C 11.769531 17.710938 11.71875 17.738281 11.671875 17.765625 C 11.59375 17.808594 11.519531 17.847656 11.445312 17.890625 C 11.1875 18.03125 10.933594 18.167969 10.679688 18.308594 C 10.476562 18.425781 10.273438 18.535156 10.070312 18.644531 C 9.890625 18.742188 9.714844 18.839844 9.539062 18.9375 C 9.285156 19.078125 9.03125 19.21875 8.773438 19.355469 C 8.652344 19.425781 8.527344 19.492188 8.402344 19.558594 C 8.378906 19.574219 8.351562 19.585938 8.328125 19.601562 C 8.140625 19.703125 7.953125 19.804688 7.769531 19.90625 C 7.601562 20 7.433594 20.09375 7.265625 20.183594 C 7.085938 20.28125 6.902344 20.382812 6.722656 20.484375 C 6.519531 20.597656 6.316406 20.707031 6.113281 20.816406 C 5.910156 20.925781 5.707031 21.039062 5.507812 21.152344 C 5.398438 21.214844 5.285156 21.269531 5.171875 21.328125 C 5.160156 21.332031 5.144531 21.339844 5.128906 21.347656 C 5.097656 21.363281 5.0625 21.382812 5.027344 21.398438 C 5.027344 20.75 5.027344 20.101562 5.035156 19.453125 C 5.035156 19.335938 5.035156 19.214844 5.039062 19.097656 C 5.039062 18.894531 5.042969 18.6875 5.042969 18.480469 C 5.046875 18.152344 5.046875 17.820312 5.050781 17.488281 C 5.050781 17.386719 5.054688 17.285156 5.054688 17.183594 C 5.054688 17.15625 5.054688 17.125 5.054688 17.097656 C 5.058594 16.753906 5.058594 16.414062 5.0625 16.070312 C 5.0625 16.046875 5.0625 16.046875 5.0625 16.023438 C 5.066406 15.632812 5.070312 15.242188 5.074219 14.851562 C 5.105469 11.15625 5.121094 7.460938 5.136719 3.761719 Z M 5.136719 3.761719 "/>
<path style=" stroke:none;fill-rule:nonzero;fill:rgb(51.372552%,16.862746%,85.882354%);fill-opacity:1;" d="M 3.890625 2.710938 C 8.867188 2.710938 13.84375 2.710938 18.972656 2.710938 C 18.972656 3.058594 18.972656 3.40625 18.972656 3.761719 C 14.40625 3.761719 9.839844 3.761719 5.136719 3.761719 C 5.136719 5.722656 5.136719 7.679688 5.136719 9.699219 C 5.125 11.460938 5.113281 13.222656 5.097656 14.984375 C 5.09375 15.371094 5.089844 15.761719 5.085938 16.148438 C 5.085938 16.160156 5.085938 16.175781 5.085938 16.191406 C 5.085938 16.34375 5.082031 16.5 5.082031 16.652344 C 5.078125 16.960938 5.078125 17.269531 5.074219 17.582031 C 5.074219 17.609375 5.074219 17.636719 5.074219 17.667969 C 5.066406 18.574219 5.058594 19.480469 5.050781 20.386719 C 5.042969 20.386719 5.035156 20.386719 5.027344 20.386719 C 5.027344 20.152344 5.027344 19.917969 5.027344 19.675781 C 4.742188 19.828125 4.453125 19.980469 4.171875 20.140625 C 4.140625 20.15625 4.140625 20.15625 4.113281 20.175781 C 4.097656 20.183594 4.078125 20.195312 4.0625 20.203125 C 4.003906 20.234375 3.945312 20.261719 3.886719 20.292969 C 3.867188 20.300781 3.847656 20.3125 3.828125 20.320312 C 3.8125 20.328125 3.796875 20.335938 3.78125 20.34375 C 3.777344 19.402344 3.785156 18.460938 3.792969 17.515625 C 3.796875 17.308594 3.796875 17.101562 3.796875 16.894531 C 3.800781 16.519531 3.804688 16.144531 3.808594 15.773438 C 3.8125 15.414062 3.8125 15.058594 3.816406 14.703125 C 3.820312 14.242188 3.824219 13.785156 3.828125 13.328125 C 3.828125 13.207031 3.832031 13.082031 3.832031 12.960938 C 3.832031 12.878906 3.832031 12.800781 3.835938 12.722656 C 3.835938 12.6875 3.835938 12.648438 3.835938 12.613281 C 3.84375 11.535156 3.855469 10.457031 3.867188 9.375 C 3.875 7.175781 3.882812 4.976562 3.890625 2.710938 Z M 3.890625 2.710938 "/>
<path style=" stroke:none;fill-rule:nonzero;fill:rgb(98.823529%,98.823529%,98.823529%);fill-opacity:1;" d="M 0 0 C 7.921875 0 15.839844 0 24 0 C 24 7.921875 24 15.839844 24 24 C 16.078125 24 8.160156 24 0 24 C 0 16.078125 0 8.160156 0 0 Z M 0.363281 0.367188 C 0.351562 0.378906 0.335938 0.390625 0.324219 0.402344 C 0.171875 0.589844 0.183594 0.796875 0.1875 1.023438 C 0.1875 1.0625 0.183594 1.101562 0.183594 1.140625 C 0.183594 1.25 0.183594 1.359375 0.183594 1.464844 C 0.1875 1.582031 0.183594 1.699219 0.183594 1.816406 C 0.183594 2.023438 0.183594 2.226562 0.183594 2.433594 C 0.183594 2.738281 0.183594 3.042969 0.183594 3.347656 C 0.183594 3.863281 0.183594 4.375 0.183594 4.890625 C 0.183594 4.90625 0.183594 4.921875 0.183594 4.9375 C 0.183594 4.953125 0.183594 4.96875 0.183594 4.984375 C 0.183594 5.460938 0.183594 5.9375 0.183594 6.417969 C 0.183594 6.449219 0.183594 6.480469 0.183594 6.511719 C 0.183594 6.640625 0.183594 6.769531 0.183594 6.898438 C 0.183594 7.257812 0.183594 7.613281 0.183594 7.972656 C 0.183594 7.988281 0.183594 8.007812 0.183594 8.023438 C 0.183594 8.542969 0.183594 9.066406 0.183594 9.585938 C 0.183594 9.601562 0.183594 9.621094 0.183594 9.636719 C 0.183594 9.910156 0.183594 10.183594 0.183594 10.460938 C 0.1875 11.546875 0.1875 12.636719 0.183594 13.722656 C 0.183594 13.996094 0.183594 14.273438 0.183594 14.546875 C 0.183594 14.5625 0.183594 14.582031 0.183594 14.597656 C 0.183594 15.117188 0.183594 15.636719 0.183594 16.15625 C 0.183594 16.175781 0.183594 16.191406 0.183594 16.207031 C 0.183594 16.566406 0.183594 16.925781 0.183594 17.28125 C 0.183594 17.410156 0.183594 17.539062 0.183594 17.667969 C 0.183594 17.699219 0.183594 17.730469 0.183594 17.761719 C 0.183594 18.242188 0.183594 18.71875 0.183594 19.195312 C 0.183594 19.210938 0.183594 19.226562 0.183594 19.242188 C 0.183594 19.257812 0.183594 19.273438 0.183594 19.289062 C 0.183594 19.816406 0.183594 20.34375 0.183594 20.867188 C 0.183594 21.171875 0.183594 21.476562 0.183594 21.777344 C 0.183594 21.980469 0.183594 22.183594 0.183594 22.386719 C 0.1875 22.503906 0.1875 22.617188 0.183594 22.734375 C 0.183594 22.839844 0.183594 22.945312 0.1875 23.050781 C 0.1875 23.085938 0.1875 23.125 0.183594 23.164062 C 0.183594 23.453125 0.183594 23.453125 0.324219 23.703125 C 0.347656 23.71875 0.347656 23.71875 0.367188 23.738281 C 0.382812 23.75 0.394531 23.761719 0.410156 23.773438 C 0.53125 23.855469 0.628906 23.878906 0.777344 23.878906 C 0.800781 23.878906 0.800781 23.878906 0.824219 23.878906 C 0.878906 23.878906 0.933594 23.878906 0.988281 23.878906 C 1.027344 23.878906 1.0625 23.878906 1.101562 23.878906 C 1.210938 23.878906 1.320312 23.878906 1.425781 23.878906 C 1.542969 23.878906 1.660156 23.878906 1.777344 23.878906 C 1.980469 23.878906 2.1875 23.878906 2.390625 23.878906 C 2.695312 23.878906 3 23.878906 3.304688 23.878906 C 3.820312 23.878906 4.332031 23.878906 4.84375 23.878906 C 4.867188 23.878906 4.867188 23.878906 4.890625 23.878906 C 4.90625 23.878906 4.921875 23.878906 4.941406 23.878906 C 5.417969 23.878906 5.890625 23.878906 6.367188 23.878906 C 6.402344 23.878906 6.433594 23.878906 6.464844 23.878906 C 6.59375 23.878906 6.722656 23.878906 6.847656 23.878906 C 7.207031 23.878906 7.566406 23.878906 7.921875 23.878906 C 7.949219 23.878906 7.949219 23.878906 7.972656 23.878906 C 8.492188 23.878906 9.011719 23.878906 9.53125 23.878906 C 9.550781 23.878906 9.566406 23.878906 9.585938 23.878906 C 9.859375 23.878906 10.132812 23.878906 10.40625 23.878906 C 11.492188 23.878906 12.578125 23.878906 13.664062 23.878906 C 13.9375 23.878906 14.210938 23.878906 14.484375 23.878906 C 14.503906 23.878906 14.519531 23.878906 14.535156 23.878906 C 15.054688 23.878906 15.574219 23.878906 16.09375 23.878906 C 16.113281 23.878906 16.128906 23.878906 16.144531 23.878906 C 16.503906 23.878906 16.859375 23.878906 17.21875 23.878906 C 17.347656 23.878906 17.472656 23.878906 17.601562 23.878906 C 17.632812 23.878906 17.664062 23.878906 17.699219 23.878906 C 18.175781 23.878906 18.648438 23.878906 19.125 23.878906 C 19.140625 23.878906 19.15625 23.878906 19.175781 23.878906 C 19.191406 23.878906 19.207031 23.878906 19.222656 23.878906 C 19.746094 23.878906 20.273438 23.878906 20.796875 23.878906 C 21.101562 23.878906 21.402344 23.878906 21.707031 23.878906 C 21.910156 23.878906 22.113281 23.878906 22.3125 23.878906 C 22.429688 23.878906 22.546875 23.878906 22.660156 23.878906 C 22.765625 23.878906 22.871094 23.878906 22.976562 23.878906 C 23.011719 23.878906 23.050781 23.878906 23.089844 23.878906 C 23.140625 23.878906 23.191406 23.878906 23.242188 23.878906 C 23.269531 23.878906 23.300781 23.878906 23.328125 23.878906 C 23.472656 23.863281 23.605469 23.8125 23.714844 23.71875 C 23.8125 23.582031 23.871094 23.476562 23.871094 23.3125 C 23.871094 23.296875 23.871094 23.28125 23.871094 23.261719 C 23.871094 23.210938 23.871094 23.15625 23.871094 23.101562 C 23.871094 23.0625 23.871094 23.023438 23.871094 22.984375 C 23.871094 22.878906 23.871094 22.769531 23.871094 22.660156 C 23.871094 22.546875 23.871094 22.429688 23.871094 22.3125 C 23.871094 22.078125 23.871094 21.847656 23.871094 21.613281 C 23.871094 21.335938 23.871094 21.058594 23.875 20.78125 C 23.875 20.109375 23.875 19.4375 23.875 18.765625 C 23.875 18.542969 23.875 18.320312 23.875 18.097656 C 23.875 18.082031 23.875 18.066406 23.875 18.050781 C 23.875 17.988281 23.875 17.921875 23.875 17.859375 C 23.875 16.773438 23.875 15.6875 23.875 14.601562 C 23.875 14.519531 23.875 14.433594 23.875 14.347656 C 23.875 14.332031 23.875 14.3125 23.875 14.296875 C 23.875 14.125 23.875 13.953125 23.875 13.78125 C 23.875 13.746094 23.875 13.714844 23.875 13.679688 C 23.875 12.574219 23.875 11.472656 23.875 10.367188 C 23.878906 9.574219 23.878906 8.78125 23.878906 7.988281 C 23.878906 7.972656 23.878906 7.953125 23.878906 7.9375 C 23.878906 7.578125 23.878906 7.222656 23.878906 6.863281 C 23.878906 6.71875 23.878906 6.574219 23.878906 6.433594 C 23.878906 6.417969 23.878906 6.402344 23.878906 6.382812 C 23.878906 5.875 23.878906 5.367188 23.878906 4.859375 C 23.878906 4.335938 23.878906 3.808594 23.878906 3.28125 C 23.878906 2.980469 23.878906 2.675781 23.878906 2.371094 C 23.878906 2.171875 23.878906 1.96875 23.878906 1.765625 C 23.878906 1.648438 23.878906 1.535156 23.878906 1.417969 C 23.878906 1.3125 23.878906 1.210938 23.878906 1.105469 C 23.878906 1.066406 23.878906 1.027344 23.878906 0.992188 C 23.882812 0.769531 23.878906 0.585938 23.730469 0.414062 C 23.582031 0.289062 23.46875 0.230469 23.273438 0.230469 C 23.257812 0.230469 23.242188 0.230469 23.222656 0.230469 C 23.171875 0.230469 23.117188 0.230469 23.0625 0.230469 C 23.023438 0.230469 22.984375 0.230469 22.945312 0.230469 C 22.839844 0.230469 22.730469 0.230469 22.625 0.230469 C 22.507812 0.230469 22.390625 0.230469 22.273438 0.230469 C 22.070312 0.230469 21.863281 0.230469 21.660156 0.230469 C 21.355469 0.230469 21.050781 0.230469 20.746094 0.230469 C 20.183594 0.230469 19.625 0.230469 19.066406 0.230469 C 18.988281 0.230469 18.90625 0.230469 18.828125 0.230469 C 18.804688 0.230469 18.804688 0.230469 18.78125 0.230469 C 18.429688 0.230469 18.082031 0.230469 17.734375 0.230469 C 17.652344 0.230469 17.574219 0.230469 17.492188 0.230469 C 17.460938 0.230469 17.429688 0.230469 17.398438 0.230469 C 17.375 0.230469 17.375 0.230469 17.351562 0.230469 C 17.316406 0.230469 17.285156 0.230469 17.253906 0.230469 C 16.34375 0.230469 15.433594 0.230469 14.523438 0.230469 C 14.507812 0.230469 14.492188 0.230469 14.472656 0.230469 C 14.285156 0.230469 14.097656 0.230469 13.910156 0.230469 C 13.882812 0.230469 13.882812 0.230469 13.859375 0.230469 C 13.753906 0.230469 13.753906 0.230469 13.652344 0.230469 C 12.566406 0.230469 11.480469 0.230469 10.394531 0.230469 C 10.121094 0.230469 9.847656 0.230469 9.574219 0.230469 C 9.558594 0.230469 9.542969 0.230469 9.523438 0.230469 C 9.003906 0.230469 8.484375 0.230469 7.96875 0.230469 C 7.949219 0.230469 7.933594 0.230469 7.917969 0.230469 C 7.558594 0.230469 7.203125 0.230469 6.84375 0.230469 C 6.71875 0.230469 6.589844 0.230469 6.460938 0.230469 C 6.429688 0.230469 6.398438 0.230469 6.367188 0.230469 C 5.859375 0.230469 5.351562 0.230469 4.84375 0.226562 C 4.320312 0.226562 3.792969 0.226562 3.269531 0.226562 C 2.964844 0.230469 2.664062 0.226562 2.359375 0.226562 C 2.15625 0.226562 1.957031 0.226562 1.753906 0.226562 C 1.636719 0.226562 1.523438 0.226562 1.40625 0.226562 C 1.300781 0.226562 1.199219 0.226562 1.09375 0.226562 C 1.054688 0.226562 1.015625 0.226562 0.980469 0.226562 C 0.648438 0.222656 0.648438 0.222656 0.363281 0.367188 Z M 0.363281 0.367188 "/>
</g>
</svg>
