<?xml version="1.0" encoding="UTF-8"?>
<svg xmlns="http://www.w3.org/2000/svg" xmlns:xlink="http://www.w3.org/1999/xlink" width="24px" height="24px" viewBox="0 0 24 24" version="1.1">
<g id="surface1">
<path style=" stroke:none;fill-rule:nonzero;fill:rgb(0%,0%,0%);fill-opacity:1;" d="M 12.054688 7.347656 C 12.222656 7.441406 12.34375 7.574219 12.480469 7.710938 C 12.507812 7.742188 12.539062 7.769531 12.570312 7.800781 C 12.664062 7.894531 12.757812 7.992188 12.847656 8.085938 C 12.941406 8.179688 13.035156 8.273438 13.128906 8.367188 C 13.183594 8.425781 13.242188 8.484375 13.300781 8.542969 C 13.460938 8.710938 13.628906 8.863281 13.804688 9.015625 C 13.921875 9.117188 14.03125 9.226562 14.140625 9.339844 C 14.164062 9.363281 14.1875 9.382812 14.210938 9.40625 C 14.304688 9.503906 14.398438 9.597656 14.492188 9.691406 C 14.800781 10.007812 14.800781 10.007812 15.125 10.304688 C 15.160156 10.335938 15.160156 10.335938 15.199219 10.371094 C 15.292969 10.453125 15.292969 10.453125 15.371094 10.503906 C 15.625 10.679688 15.851562 10.875 15.933594 11.1875 C 15.980469 11.539062 15.972656 11.894531 15.960938 12.25 C 15.957031 12.40625 15.957031 12.5625 15.957031 12.71875 C 15.953125 13.011719 15.949219 13.308594 15.941406 13.601562 C 15.933594 14 15.933594 14.398438 15.929688 14.792969 C 15.921875 15.421875 15.910156 16.046875 15.898438 16.671875 C 14.964844 16.671875 14.03125 16.671875 13.070312 16.671875 C 13.070312 15.582031 13.070312 14.492188 13.070312 13.371094 C 12.363281 13.371094 11.65625 13.371094 10.929688 13.371094 C 10.929688 14.460938 10.929688 15.550781 10.929688 16.671875 C 9.996094 16.671875 9.0625 16.671875 8.101562 16.671875 C 8.066406 15.296875 8.066406 15.296875 8.058594 14.714844 C 8.054688 14.316406 8.050781 13.917969 8.039062 13.515625 C 8.03125 13.226562 8.023438 12.933594 8.023438 12.644531 C 8.023438 12.492188 8.019531 12.335938 8.015625 12.183594 C 7.976562 11.179688 7.976562 11.179688 8.273438 10.804688 C 8.441406 10.628906 8.617188 10.472656 8.8125 10.324219 C 9.066406 10.125 9.296875 9.910156 9.523438 9.679688 C 9.546875 9.65625 9.570312 9.632812 9.59375 9.609375 C 9.667969 9.535156 9.742188 9.460938 9.8125 9.386719 C 10.355469 8.835938 10.355469 8.835938 10.542969 8.679688 C 10.804688 8.457031 11.042969 8.203125 11.285156 7.957031 C 11.382812 7.855469 11.484375 7.757812 11.585938 7.65625 C 11.605469 7.632812 11.628906 7.609375 11.652344 7.585938 C 11.917969 7.320312 11.917969 7.320312 12.054688 7.347656 Z M 12.054688 7.347656 "/>
</g>
</svg>
