<?xml version="1.0" encoding="UTF-8"?>
<svg version="1.1" xmlns="http://www.w3.org/2000/svg" width="560" height="560">
<path d="M0 0 C3.9604124 2.23514659 6.81533259 5.26340299 9.9699707 8.50854492 C10.65419601 9.19938675 11.33842133 9.89022858 12.04338074 10.602005 C14.2279626 12.80994606 16.40215036 15.02777348 18.57543945 17.24682617 C20.73965952 19.44632324 22.90606899 21.64359611 25.07536316 23.83808899 C26.42221128 25.20165759 27.76594648 26.56831103 29.10591125 27.93864441 C32.88763528 31.77951748 36.79678319 35.38226792 40.8782196 38.90193176 C43.61539729 41.30896482 46.17748412 43.86725527 48.73168945 46.46557617 C49.25629761 46.99397095 49.78090576 47.52236572 50.32141113 48.06677246 C52.52410061 50.28552202 54.72064782 52.5103139 56.91772461 54.73461914 C64.08901728 62.06666777 64.08901728 62.06666777 71.66918945 68.96557617 C72.51735733 69.73779007 72.51735733 69.73779007 73.38265991 70.52560425 C75.5831535 72.47614718 75.5831535 72.47614718 77.38405228 73.67851639 C83.33707788 77.79111685 88.65990943 82.34428072 90.55014801 89.56751251 C91.66601343 97.81912709 91.41891763 106.12947594 91.18245459 114.43155241 C91.09406488 118.0652908 91.08664597 121.69924529 91.07009888 125.33389282 C91.02683223 132.19502194 90.91230761 139.05297389 90.77120602 145.91271269 C90.58443923 155.19695808 90.50969063 164.48209184 90.42817497 173.76774597 C90.29709774 188.3673126 90.01807017 202.96017948 89.76293945 217.55932617 C67.98293945 217.55932617 46.20293945 217.55932617 23.76293945 217.55932617 C23.76293945 192.14932617 23.76293945 166.73932617 23.76293945 140.55932617 C7.26293945 140.55932617 -9.23706055 140.55932617 -26.23706055 140.55932617 C-26.23706055 165.96932617 -26.23706055 191.37932617 -26.23706055 217.55932617 C-48.01706055 217.55932617 -69.79706055 217.55932617 -92.23706055 217.55932617 C-93.0028182 185.47363282 -93.0028182 185.47363282 -93.16479492 171.9206543 C-93.27710298 162.59903008 -93.40834392 153.28069231 -93.67041016 143.96191406 C-93.86128385 137.17135708 -93.98270183 130.38348987 -94.02474195 123.5903247 C-94.04928426 119.99977684 -94.10581131 116.41691394 -94.24593163 112.82886314 C-95.12318942 89.45545082 -95.12318942 89.45545082 -88.16201782 80.69009399 C-84.29706868 76.52910088 -80.12538769 72.88505499 -75.63619423 69.41457558 C-69.72330398 64.8421392 -64.28629967 59.75757438 -59.04956055 54.43432617 C-58.50275635 53.88373535 -57.95595215 53.33314453 -57.39257812 52.76586914 C-55.67156548 51.03281801 -53.95388223 49.29652844 -52.23706055 47.55932617 C-39.60331083 34.77559978 -39.60331083 34.77559978 -35.2565918 31.07885742 C-29.1214076 25.85807486 -23.58342656 19.97142926 -17.92456055 14.24682617 C-15.59802877 11.89367286 -13.26817435 9.54388209 -10.9362793 7.19604492 C-10.40814133 6.65960861 -9.88000336 6.1231723 -9.33586121 5.57048035 C-3.18006711 -0.6264347 -3.18006711 -0.6264347 0 0 Z " fill="#000000" transform="translate(281.237060546875,171.440673828125)"/>
</svg>
