<?xml version="1.0" encoding="UTF-8"?>
<svg xmlns="http://www.w3.org/2000/svg" xmlns:xlink="http://www.w3.org/1999/xlink" width="24px" height="24px" viewBox="0 0 24 24" version="1.1">
<g id="surface1">
<path style=" stroke:none;fill-rule:nonzero;fill:rgb(0%,0%,0%);fill-opacity:1;" d="M 0 0 C 7.921875 0 15.839844 0 24 0 C 24 7.921875 24 15.839844 24 24 C 16.078125 24 8.160156 24 0 24 C 0 16.078125 0 8.160156 0 0 Z M 0 0 "/>
<path style=" stroke:none;fill-rule:nonzero;fill:rgb(99.607843%,99.607843%,99.607843%);fill-opacity:1;" d="M 0 0 C 7.921875 0 15.839844 0 24 0 C 24 7.921875 24 15.839844 24 24 C 16.078125 24 8.160156 24 0 24 C 0 16.078125 0 8.160156 0 0 Z M 6.714844 1.984375 C 6.683594 2 6.652344 2.019531 6.625 2.039062 C 5.960938 2.441406 5.351562 2.917969 4.785156 3.484375 C 4.75 3.515625 4.71875 3.546875 4.6875 3.578125 C 2.996094 5.289062 1.734375 7.636719 1.511719 10.257812 C 1.503906 10.394531 1.503906 10.527344 1.503906 10.664062 C 1.5 10.71875 1.5 10.71875 1.5 10.777344 C 1.492188 11.953125 1.492188 11.953125 1.636719 13.113281 C 1.648438 13.179688 1.648438 13.179688 1.660156 13.246094 C 1.921875 14.589844 2.417969 15.8125 3.105469 16.933594 C 3.230469 17.152344 3.1875 17.3125 3.148438 17.566406 C 3.09375 17.816406 3.03125 18.0625 2.96875 18.3125 C 2.914062 18.527344 2.863281 18.742188 2.8125 18.957031 C 2.792969 19.046875 2.769531 19.136719 2.75 19.226562 C 2.738281 19.273438 2.726562 19.316406 2.71875 19.363281 C 2.664062 19.585938 2.613281 19.808594 2.558594 20.03125 C 2.539062 20.121094 2.515625 20.210938 2.496094 20.296875 C 2.453125 20.476562 2.414062 20.652344 2.371094 20.832031 C 2.359375 20.875 2.351562 20.917969 2.339844 20.964844 C 2.316406 21.050781 2.296875 21.140625 2.277344 21.226562 C 2.222656 21.460938 2.167969 21.691406 2.113281 21.921875 C 2.101562 21.96875 2.089844 22.019531 2.078125 22.066406 C 2.058594 22.160156 2.035156 22.25 2.015625 22.34375 C 1.972656 22.515625 1.933594 22.683594 1.882812 22.855469 C 1.84375 22.988281 1.84375 23.089844 1.847656 23.226562 C 2.472656 23.066406 3.089844 22.867188 3.707031 22.671875 C 3.855469 22.625 4 22.578125 4.148438 22.53125 C 4.585938 22.394531 5.023438 22.253906 5.460938 22.117188 C 5.804688 22.007812 6.144531 21.898438 6.488281 21.789062 C 6.660156 21.734375 6.835938 21.679688 7.011719 21.625 C 7.144531 21.582031 7.28125 21.539062 7.414062 21.496094 C 7.464844 21.480469 7.511719 21.464844 7.5625 21.449219 C 7.933594 21.332031 8.1875 21.253906 8.558594 21.410156 C 10.421875 22.136719 12.539062 22.308594 14.476562 21.917969 C 14.523438 21.910156 14.566406 21.902344 14.617188 21.890625 C 16.566406 21.511719 18.453125 20.585938 19.972656 19.113281 C 19.996094 19.089844 20.015625 19.070312 20.039062 19.046875 C 20.5 18.605469 20.933594 18.144531 21.308594 17.597656 C 21.367188 17.515625 21.425781 17.433594 21.488281 17.351562 C 22.921875 15.445312 23.503906 12.816406 23.363281 10.339844 C 23.3125 9.699219 23.199219 9.082031 23.035156 8.46875 C 23.023438 8.429688 23.015625 8.390625 23.003906 8.351562 C 22.648438 7.039062 22.050781 5.875 21.273438 4.839844 C 21.242188 4.796875 21.207031 4.75 21.175781 4.707031 C 20.769531 4.175781 20.335938 3.671875 19.847656 3.242188 C 19.824219 3.222656 19.800781 3.203125 19.777344 3.179688 C 18.8125 2.324219 17.753906 1.699219 16.617188 1.210938 C 16.566406 1.1875 16.566406 1.1875 16.511719 1.164062 C 15.699219 0.816406 14.832031 0.613281 13.972656 0.484375 C 13.941406 0.480469 13.910156 0.472656 13.878906 0.46875 C 11.460938 0.0820312 8.855469 0.65625 6.714844 1.984375 Z M 6.714844 1.984375 "/>
<path style=" stroke:none;fill-rule:nonzero;fill:rgb(100%,100%,100%);fill-opacity:1;" d="M 5.707031 7.597656 C 10.441406 7.597656 15.175781 7.597656 20.054688 7.597656 C 20.054688 7.835938 20.054688 8.074219 20.054688 8.324219 C 15.320312 8.324219 10.585938 8.324219 5.707031 8.324219 C 5.707031 8.082031 5.707031 7.84375 5.707031 7.597656 Z M 5.707031 7.597656 "/>
<path style=" stroke:none;fill-rule:nonzero;fill:rgb(100%,100%,100%);fill-opacity:1;" d="M 5.707031 10.789062 C 9.875 10.789062 14.042969 10.789062 18.335938 10.789062 C 18.335938 11.03125 18.335938 11.269531 18.335938 11.515625 C 14.167969 11.515625 10 11.515625 5.707031 11.515625 C 5.707031 11.277344 5.707031 11.035156 5.707031 10.789062 Z M 5.707031 10.789062 "/>
<path style=" stroke:none;fill-rule:nonzero;fill:rgb(97.647059%,97.647059%,97.647059%);fill-opacity:1;" d="M 5.707031 13.984375 C 8.835938 13.984375 11.964844 13.984375 15.1875 13.984375 C 15.1875 14.238281 15.1875 14.496094 15.1875 14.757812 C 12.058594 14.757812 8.929688 14.757812 5.707031 14.757812 C 5.707031 14.503906 5.707031 14.246094 5.707031 13.984375 Z M 5.707031 13.984375 "/>
</g>
</svg>
