<?xml version="1.0" encoding="UTF-8"?>
<svg version="1.1" xmlns="http://www.w3.org/2000/svg" width="572" height="496">
<path d="M0 0 C188.76 0 377.52 0 572 0 C572 163.68 572 327.36 572 496 C383.24 496 194.48 496 0 496 C0 332.32 0 168.64 0 0 Z " fill="#000000" transform="translate(0,0)"/>
<path d="M0 0 C188.76 0 377.52 0 572 0 C572 163.68 572 327.36 572 496 C383.24 496 194.48 496 0 496 C0 332.32 0 168.64 0 0 Z M160 41 C159.29359375 41.37060547 158.5871875 41.74121094 157.859375 42.12304688 C142.04280232 50.4322778 127.53680583 60.31991714 114 72 C113.24332031 72.64582031 112.48664063 73.29164062 111.70703125 73.95703125 C71.38373509 109.28212989 41.37018095 157.80243417 36 212 C35.85254934 214.78564463 35.81384688 217.56625481 35.796875 220.35546875 C35.78628555 221.5185556 35.78628555 221.5185556 35.77548218 222.70513916 C35.56054252 247.00469693 35.56054252 247.00469693 39 271 C39.29801514 272.36753418 39.29801514 272.36753418 39.60205078 273.76269531 C45.83922693 301.52396925 57.64767497 326.76753822 74 350 C76.99160797 354.48741195 75.96362775 357.82519386 75 363 C73.75076472 368.1961142 72.2231543 373.31851364 70.73242188 378.44921875 C69.46300285 382.87018208 68.2659535 387.31071614 67.0625 391.75 C66.5535405 393.61983389 66.04442472 395.48962524 65.53515625 397.359375 C65.28137207 398.29201172 65.02758789 399.22464844 64.76611328 400.18554688 C63.51251869 404.79084912 62.256138 409.39539098 61 414 C60.49998622 415.83332958 59.99998623 417.66666291 59.5 419.5 C58.5 423.16666667 57.5 426.83333333 56.5 430.5 C56.25217773 431.40878906 56.00435547 432.31757813 55.74902344 433.25390625 C55.2524993 435.07427895 54.75575703 436.89459217 54.25878906 438.71484375 C52.95374819 443.49599216 51.65330302 448.27833114 50.359375 453.0625 C50.08996094 454.05636719 49.82054687 455.05023438 49.54296875 456.07421875 C49.02854208 457.97227579 48.51544101 459.87069279 48.00390625 461.76953125 C47.03706991 465.33240328 46.06007519 468.83018745 44.828125 472.3125 C43.98408116 475.05166113 43.93692265 477.15794871 44 480 C58.91718061 476.70314895 73.6170945 472.62135977 88.34009981 468.55983758 C91.85938976 467.58996842 95.37985029 466.62436834 98.90023804 465.65849304 C109.32624059 462.7971506 119.75057089 459.92973373 130.17431641 457.06018066 C138.31417807 454.81940593 146.45454919 452.5805229 154.59655797 450.34756058 C158.7712251 449.20242234 162.94478017 448.05334284 167.11752057 446.90120471 C170.31911263 446.018375 173.52222328 445.14110523 176.72509766 444.26293945 C177.87011749 443.94554306 179.01513733 443.62814667 180.19485474 443.3011322 C189.04825768 440.88294263 195.15044854 439.25323944 204 442.5 C248.36169501 457.47458121 298.85787404 461.00868608 345 453 C346.1048877 452.81727539 347.20977539 452.63455078 348.34814453 452.44628906 C394.78672496 444.55425739 439.82718989 425.46714481 476 395 C476.52803223 394.56075195 477.05606445 394.12150391 477.60009766 393.66894531 C488.61664295 384.49418501 498.89852322 374.9853435 507.8359375 363.7109375 C509.22008199 361.97700921 510.63942378 360.2702487 512.1015625 358.6015625 C546.29805523 319.1823327 560.1392624 264.8684844 556.78173828 213.671875 C555.58822618 200.44885164 552.9294613 187.66889863 549 175 C548.75266113 174.19498047 548.50532227 173.38996094 548.25048828 172.56054688 C539.76352595 145.47472358 525.4986458 121.42572572 507 100 C506.23171875 99.10152344 505.4634375 98.20304687 504.671875 97.27734375 C495.02608253 86.29185788 484.63100134 75.87297257 473 67 C472.45827148 66.58186035 471.91654297 66.1637207 471.35839844 65.73291016 C448.3551713 48.05151767 423.11515151 35.13033072 396 25 C394.78812012 24.54367188 394.78812012 24.54367188 393.55175781 24.078125 C374.1309357 16.87074769 353.50677188 12.66801832 333 10 C332.26845703 9.89703613 331.53691406 9.79407227 330.78320312 9.68798828 C273.15849582 1.72370013 211.06397284 13.57105876 160 41 Z " fill="#FEFEFE" transform="translate(0,0)"/>
<path d="M0 0 C112.86 0 225.72 0 342 0 C342 4.95 342 9.9 342 15 C229.14 15 116.28 15 0 15 C0 10.05 0 5.1 0 0 Z " fill="#FFFFFF" transform="translate(136,157)"/>
<path d="M0 0 C99.33 0 198.66 0 301 0 C301 4.95 301 9.9 301 15 C201.67 15 102.34 15 0 15 C0 10.05 0 5.1 0 0 Z " fill="#FFFFFF" transform="translate(136,223)"/>
<path d="M0 0 C74.58 0 149.16 0 226 0 C226 5.28 226 10.56 226 16 C151.42 16 76.84 16 0 16 C0 10.72 0 5.44 0 0 Z " fill="#F9F9F9" transform="translate(136,289)"/>
</svg>
