<?xml version="1.0" encoding="UTF-8"?>
<svg xmlns="http://www.w3.org/2000/svg" xmlns:xlink="http://www.w3.org/1999/xlink" width="24px" height="24px" viewBox="0 0 24 24" version="1.1">
<g id="surface1">
<path style=" stroke:none;fill-rule:nonzero;fill:rgb(99.607843%,99.607843%,99.607843%);fill-opacity:1;" d="M 0 0 C 7.921875 0 15.839844 0 24 0 C 24 7.921875 24 15.839844 24 24 C 16.078125 24 8.160156 24 0 24 C 0 16.078125 0 8.160156 0 0 Z M 0 0 "/>
<path style=" stroke:none;fill-rule:nonzero;fill:rgb(51.372552%,16.862746%,86.274511%);fill-opacity:1;" d="M 2.207031 2.632812 C 8.613281 2.632812 15.019531 2.632812 21.617188 2.632812 C 21.617188 7.222656 21.617188 11.8125 21.617188 16.539062 C 15.210938 16.539062 8.804688 16.539062 2.207031 16.539062 C 2.207031 11.949219 2.207031 7.363281 2.207031 2.632812 Z M 2.207031 2.632812 "/>
<path style=" stroke:none;fill-rule:nonzero;fill:rgb(0%,0%,0%);fill-opacity:1;" d="M 0 0 C 7.921875 0 15.839844 0 24 0 C 24 7.921875 24 15.839844 24 24 C 16.078125 24 8.160156 24 0 24 C 0 16.078125 0 8.160156 0 0 Z M 0.773438 0.773438 C 0.773438 8.167969 0.773438 15.5625 0.773438 23.179688 C 8.226562 23.179688 15.679688 23.179688 23.359375 23.179688 C 23.359375 15.785156 23.359375 8.394531 23.359375 0.773438 C 15.90625 0.773438 8.453125 0.773438 0.773438 0.773438 Z M 0.773438 0.773438 "/>
<path style=" stroke:none;fill-rule:nonzero;fill:rgb(98.431373%,98.431373%,98.431373%);fill-opacity:1;" d="M 0 0 C 7.921875 0 15.839844 0 24 0 C 24 7.921875 24 15.839844 24 24 C 16.078125 24 8.160156 24 0 24 C 0 16.078125 0 8.160156 0 0 Z M 0.546875 0.355469 C 0.53125 0.367188 0.519531 0.378906 0.503906 0.390625 C 0.339844 0.589844 0.335938 0.773438 0.339844 1.019531 C 0.339844 1.058594 0.339844 1.097656 0.339844 1.136719 C 0.339844 1.242188 0.339844 1.351562 0.339844 1.457031 C 0.339844 1.574219 0.339844 1.6875 0.339844 1.804688 C 0.339844 2.007812 0.339844 2.210938 0.339844 2.414062 C 0.339844 2.71875 0.339844 3.019531 0.339844 3.324219 C 0.339844 3.832031 0.339844 4.34375 0.339844 4.851562 C 0.339844 5.355469 0.339844 5.859375 0.339844 6.363281 C 0.339844 6.398438 0.339844 6.429688 0.339844 6.460938 C 0.339844 6.585938 0.339844 6.714844 0.339844 6.84375 C 0.339844 7.199219 0.339844 7.554688 0.339844 7.910156 C 0.339844 7.925781 0.339844 7.941406 0.339844 7.957031 C 0.339844 8.476562 0.339844 8.992188 0.339844 9.507812 C 0.339844 9.523438 0.339844 9.539062 0.339844 9.558594 C 0.339844 9.832031 0.339844 10.101562 0.339844 10.375 C 0.339844 11.453125 0.339844 12.53125 0.339844 13.609375 C 0.339844 13.679688 0.339844 13.746094 0.339844 13.816406 C 0.339844 13.832031 0.339844 13.847656 0.339844 13.867188 C 0.339844 14.054688 0.339844 14.238281 0.339844 14.425781 C 0.339844 14.441406 0.339844 14.460938 0.339844 14.476562 C 0.339844 14.992188 0.339844 15.507812 0.339844 16.023438 C 0.339844 16.039062 0.339844 16.058594 0.339844 16.074219 C 0.339844 16.429688 0.339844 16.785156 0.339844 17.140625 C 0.339844 17.265625 0.339844 17.394531 0.339844 17.519531 C 0.339844 17.570312 0.339844 17.617188 0.339844 17.664062 C 0.339844 18.011719 0.339844 18.355469 0.339844 18.703125 C 0.339844 18.71875 0.339844 18.734375 0.339844 18.75 C 0.339844 18.832031 0.339844 18.910156 0.339844 18.988281 C 0.339844 19.558594 0.339844 20.125 0.339844 20.695312 C 0.339844 20.996094 0.339844 21.296875 0.339844 21.597656 C 0.339844 21.796875 0.339844 22 0.339844 22.199219 C 0.339844 22.316406 0.339844 22.429688 0.339844 22.542969 C 0.339844 22.648438 0.339844 22.753906 0.339844 22.855469 C 0.339844 22.894531 0.339844 22.929688 0.339844 22.96875 C 0.339844 23.210938 0.351562 23.417969 0.53125 23.601562 C 0.667969 23.71875 0.773438 23.738281 0.953125 23.738281 C 0.976562 23.738281 0.976562 23.738281 1 23.738281 C 1.054688 23.738281 1.105469 23.738281 1.160156 23.738281 C 1.199219 23.738281 1.238281 23.738281 1.273438 23.738281 C 1.382812 23.738281 1.488281 23.738281 1.59375 23.738281 C 1.710938 23.738281 1.824219 23.738281 1.941406 23.738281 C 2.171875 23.738281 2.402344 23.738281 2.628906 23.738281 C 2.90625 23.738281 3.179688 23.738281 3.457031 23.738281 C 4.121094 23.738281 4.785156 23.738281 5.449219 23.742188 C 5.667969 23.742188 5.890625 23.742188 6.109375 23.742188 C 7.261719 23.742188 8.414062 23.742188 9.566406 23.742188 C 9.652344 23.742188 9.738281 23.742188 9.820312 23.742188 C 9.835938 23.742188 9.855469 23.742188 9.871094 23.742188 C 10.042969 23.742188 10.210938 23.742188 10.378906 23.742188 C 10.414062 23.742188 10.449219 23.742188 10.484375 23.742188 C 11.574219 23.742188 12.667969 23.742188 13.757812 23.742188 C 14.542969 23.746094 15.328125 23.746094 16.113281 23.746094 C 16.128906 23.746094 16.144531 23.746094 16.164062 23.746094 C 16.515625 23.746094 16.871094 23.746094 17.226562 23.746094 C 17.367188 23.746094 17.511719 23.746094 17.652344 23.746094 C 17.667969 23.746094 17.683594 23.746094 17.699219 23.746094 C 18.203125 23.746094 18.707031 23.746094 19.207031 23.746094 C 19.726562 23.746094 20.25 23.746094 20.769531 23.746094 C 21.070312 23.746094 21.367188 23.746094 21.667969 23.746094 C 21.867188 23.75 22.070312 23.75 22.269531 23.746094 C 22.382812 23.746094 22.5 23.746094 22.613281 23.75 C 22.714844 23.75 22.820312 23.75 22.925781 23.75 C 22.960938 23.746094 23 23.75 23.035156 23.75 C 23.273438 23.75 23.464844 23.734375 23.644531 23.5625 C 23.785156 23.347656 23.792969 23.164062 23.789062 22.914062 C 23.789062 22.875 23.789062 22.835938 23.789062 22.796875 C 23.792969 22.691406 23.789062 22.585938 23.789062 22.476562 C 23.789062 22.363281 23.789062 22.246094 23.789062 22.128906 C 23.792969 21.925781 23.792969 21.722656 23.789062 21.519531 C 23.789062 21.214844 23.789062 20.914062 23.789062 20.613281 C 23.792969 20.101562 23.792969 19.59375 23.789062 19.085938 C 23.789062 18.582031 23.789062 18.078125 23.789062 17.574219 C 23.789062 17.539062 23.789062 17.507812 23.789062 17.476562 C 23.789062 17.351562 23.789062 17.222656 23.789062 17.097656 C 23.789062 16.742188 23.789062 16.386719 23.789062 16.03125 C 23.789062 16.003906 23.789062 16.003906 23.789062 15.980469 C 23.789062 15.464844 23.789062 14.949219 23.789062 14.433594 C 23.789062 14.414062 23.789062 14.398438 23.789062 14.382812 C 23.789062 14.109375 23.789062 13.839844 23.789062 13.566406 C 23.789062 12.488281 23.789062 11.410156 23.789062 10.332031 C 23.789062 10.265625 23.789062 10.195312 23.789062 10.128906 C 23.789062 10.109375 23.789062 10.09375 23.789062 10.078125 C 23.789062 9.890625 23.789062 9.703125 23.789062 9.515625 C 23.789062 9.5 23.789062 9.484375 23.789062 9.464844 C 23.789062 8.578125 23.789062 7.691406 23.789062 6.804688 C 23.789062 6.679688 23.789062 6.550781 23.789062 6.425781 C 23.789062 6.378906 23.789062 6.328125 23.789062 6.28125 C 23.789062 5.9375 23.789062 5.589844 23.789062 5.242188 C 23.789062 5.226562 23.789062 5.210938 23.789062 5.195312 C 23.789062 5.117188 23.789062 5.039062 23.789062 4.960938 C 23.789062 4.390625 23.789062 3.820312 23.789062 3.253906 C 23.789062 2.953125 23.789062 2.652344 23.789062 2.351562 C 23.789062 2.152344 23.789062 1.949219 23.789062 1.75 C 23.789062 1.632812 23.789062 1.519531 23.789062 1.40625 C 23.789062 1.300781 23.789062 1.199219 23.789062 1.09375 C 23.789062 1.054688 23.789062 1.019531 23.789062 0.980469 C 23.789062 0.929688 23.789062 0.878906 23.789062 0.828125 C 23.789062 0.785156 23.789062 0.785156 23.789062 0.742188 C 23.769531 0.574219 23.683594 0.445312 23.558594 0.332031 C 23.421875 0.242188 23.300781 0.21875 23.140625 0.21875 C 23.125 0.21875 23.109375 0.21875 23.09375 0.21875 C 23.039062 0.21875 22.984375 0.21875 22.933594 0.21875 C 22.894531 0.21875 22.855469 0.21875 22.816406 0.21875 C 22.710938 0.21875 22.605469 0.21875 22.5 0.21875 C 22.386719 0.21875 22.269531 0.21875 22.15625 0.21875 C 21.925781 0.21875 21.699219 0.21875 21.46875 0.21875 C 21.195312 0.21875 20.921875 0.21875 20.648438 0.21875 C 20 0.21875 19.355469 0.21875 18.710938 0.21875 C 18.382812 0.21875 18.054688 0.21875 17.722656 0.214844 C 16.671875 0.214844 15.617188 0.214844 14.5625 0.214844 C 14.511719 0.214844 14.464844 0.214844 14.414062 0.214844 C 14.3125 0.214844 14.210938 0.214844 14.109375 0.214844 C 13.992188 0.214844 13.875 0.214844 13.753906 0.214844 C 13.722656 0.214844 13.6875 0.214844 13.652344 0.214844 C 12.566406 0.214844 11.480469 0.214844 10.390625 0.214844 C 9.609375 0.214844 8.828125 0.214844 8.046875 0.214844 C 8.023438 0.214844 8.023438 0.214844 8 0.214844 C 7.648438 0.214844 7.292969 0.214844 6.941406 0.214844 C 6.816406 0.214844 6.691406 0.214844 6.5625 0.214844 C 6.53125 0.214844 6.5 0.214844 6.46875 0.214844 C 5.96875 0.214844 5.46875 0.214844 4.96875 0.214844 C 4.449219 0.214844 3.933594 0.214844 3.414062 0.214844 C 3.117188 0.214844 2.816406 0.214844 2.519531 0.214844 C 2.320312 0.210938 2.121094 0.214844 1.921875 0.214844 C 1.808594 0.214844 1.695312 0.214844 1.582031 0.214844 C 1.476562 0.210938 1.375 0.210938 1.269531 0.214844 C 1.234375 0.214844 1.195312 0.214844 1.160156 0.214844 C 0.828125 0.207031 0.828125 0.207031 0.546875 0.355469 Z M 0.546875 0.355469 "/>
<path style=" stroke:none;fill-rule:nonzero;fill:rgb(0%,0%,0%);fill-opacity:1;" d="M 2.226562 17.402344 C 5.261719 17.402344 8.300781 17.402344 11.425781 17.402344 C 11.425781 17.753906 11.425781 18.105469 11.425781 18.464844 C 8.390625 18.464844 5.355469 18.464844 2.226562 18.464844 C 2.226562 18.113281 2.226562 17.761719 2.226562 17.402344 Z M 2.226562 17.402344 "/>
<path style=" stroke:none;fill-rule:nonzero;fill:rgb(50.196081%,26.666668%,93.725491%);fill-opacity:1;" d="M 0.773438 0.773438 C 8.226562 0.773438 15.679688 0.773438 23.359375 0.773438 C 23.359375 8.167969 23.359375 15.5625 23.359375 23.179688 C 15.90625 23.179688 8.453125 23.179688 0.773438 23.179688 C 0.773438 15.785156 0.773438 8.394531 0.773438 0.773438 Z M 0.96875 0.996094 C 0.953125 1.015625 0.953125 1.015625 0.933594 1.03125 C 0.820312 1.171875 0.84375 1.359375 0.847656 1.53125 C 0.847656 1.570312 0.847656 1.605469 0.847656 1.644531 C 0.84375 1.746094 0.84375 1.847656 0.847656 1.949219 C 0.847656 2.058594 0.847656 2.171875 0.84375 2.28125 C 0.84375 2.476562 0.84375 2.671875 0.84375 2.867188 C 0.847656 3.15625 0.84375 3.445312 0.84375 3.734375 C 0.84375 4.265625 0.84375 4.796875 0.84375 5.328125 C 0.84375 5.402344 0.84375 5.476562 0.84375 5.554688 C 0.84375 5.566406 0.84375 5.582031 0.84375 5.597656 C 0.84375 5.945312 0.84375 6.289062 0.84375 6.636719 C 0.84375 6.667969 0.84375 6.699219 0.84375 6.726562 C 0.84375 6.851562 0.84375 6.972656 0.84375 7.09375 C 0.84375 7.433594 0.84375 7.773438 0.84375 8.113281 C 0.84375 8.128906 0.84375 8.144531 0.84375 8.160156 C 0.84375 8.652344 0.84375 9.144531 0.84375 9.636719 C 0.84375 9.65625 0.84375 9.671875 0.84375 9.6875 C 0.84375 9.945312 0.84375 10.207031 0.84375 10.464844 C 0.84375 11.496094 0.84375 12.527344 0.84375 13.558594 C 0.84375 13.816406 0.84375 14.078125 0.84375 14.335938 C 0.84375 14.351562 0.84375 14.367188 0.84375 14.382812 C 0.84375 14.878906 0.84375 15.371094 0.84375 15.863281 C 0.84375 15.878906 0.84375 15.894531 0.84375 15.910156 C 0.84375 16.25 0.84375 16.589844 0.84375 16.929688 C 0.84375 17.050781 0.84375 17.171875 0.84375 17.292969 C 0.84375 17.324219 0.84375 17.351562 0.84375 17.382812 C 0.84375 17.863281 0.84375 18.347656 0.84375 18.828125 C 0.84375 19.324219 0.84375 19.824219 0.84375 20.324219 C 0.84375 20.609375 0.84375 20.898438 0.84375 21.183594 C 0.84375 21.378906 0.84375 21.570312 0.84375 21.761719 C 0.84375 21.871094 0.84375 21.980469 0.84375 22.089844 C 0.84375 22.1875 0.84375 22.289062 0.84375 22.386719 C 0.84375 22.421875 0.84375 22.460938 0.84375 22.496094 C 0.839844 22.671875 0.84375 22.816406 0.949219 22.964844 C 1.0625 23.066406 1.15625 23.101562 1.304688 23.101562 C 1.328125 23.105469 1.328125 23.105469 1.351562 23.105469 C 1.402344 23.105469 1.457031 23.105469 1.507812 23.101562 C 1.542969 23.101562 1.582031 23.105469 1.621094 23.105469 C 1.722656 23.105469 1.824219 23.105469 1.929688 23.105469 C 2.042969 23.101562 2.152344 23.105469 2.265625 23.105469 C 2.460938 23.105469 2.660156 23.105469 2.855469 23.105469 C 3.148438 23.105469 3.441406 23.105469 3.730469 23.105469 C 4.222656 23.105469 4.714844 23.105469 5.207031 23.105469 C 5.222656 23.105469 5.238281 23.105469 5.253906 23.105469 C 5.269531 23.105469 5.28125 23.105469 5.296875 23.105469 C 5.753906 23.105469 6.210938 23.105469 6.667969 23.105469 C 6.699219 23.105469 6.730469 23.105469 6.761719 23.105469 C 6.882812 23.105469 7.007812 23.105469 7.128906 23.105469 C 7.472656 23.105469 7.816406 23.105469 8.160156 23.105469 C 8.175781 23.105469 8.191406 23.105469 8.207031 23.105469 C 8.707031 23.105469 9.203125 23.105469 9.703125 23.105469 C 9.71875 23.105469 9.734375 23.105469 9.753906 23.105469 C 10.015625 23.105469 10.277344 23.105469 10.539062 23.105469 C 11.582031 23.101562 12.625 23.101562 13.667969 23.105469 C 13.929688 23.105469 14.191406 23.105469 14.453125 23.105469 C 14.46875 23.105469 14.484375 23.105469 14.503906 23.105469 C 15 23.105469 15.5 23.105469 15.996094 23.105469 C 16.019531 23.105469 16.019531 23.105469 16.042969 23.105469 C 16.386719 23.105469 16.730469 23.105469 17.074219 23.105469 C 17.195312 23.105469 17.320312 23.105469 17.441406 23.105469 C 17.472656 23.105469 17.503906 23.105469 17.535156 23.105469 C 17.992188 23.105469 18.449219 23.105469 18.902344 23.105469 C 18.917969 23.105469 18.933594 23.105469 18.949219 23.105469 C 18.964844 23.105469 18.980469 23.105469 18.996094 23.105469 C 19.5 23.105469 20.003906 23.105469 20.507812 23.105469 C 20.796875 23.105469 21.089844 23.105469 21.378906 23.105469 C 21.574219 23.105469 21.765625 23.105469 21.960938 23.105469 C 22.070312 23.105469 22.183594 23.101562 22.292969 23.105469 C 22.394531 23.105469 22.496094 23.105469 22.59375 23.105469 C 22.632812 23.101562 22.667969 23.101562 22.703125 23.105469 C 22.753906 23.105469 22.800781 23.105469 22.851562 23.101562 C 22.878906 23.101562 22.90625 23.101562 22.933594 23.101562 C 23.082031 23.082031 23.164062 22.984375 23.25 22.871094 C 23.273438 22.796875 23.273438 22.738281 23.273438 22.65625 C 23.273438 22.636719 23.273438 22.636719 23.273438 22.613281 C 23.273438 22.5625 23.273438 22.507812 23.273438 22.457031 C 23.273438 22.421875 23.273438 22.382812 23.273438 22.347656 C 23.277344 22.246094 23.277344 22.144531 23.277344 22.039062 C 23.277344 21.929688 23.277344 21.820312 23.277344 21.707031 C 23.277344 21.488281 23.277344 21.265625 23.277344 21.046875 C 23.277344 20.78125 23.277344 20.519531 23.277344 20.253906 C 23.277344 19.617188 23.277344 18.976562 23.277344 18.339844 C 23.277344 18.128906 23.277344 17.917969 23.277344 17.707031 C 23.277344 16.601562 23.28125 15.492188 23.28125 14.386719 C 23.28125 14.304688 23.28125 14.226562 23.28125 14.144531 C 23.28125 14.128906 23.28125 14.113281 23.28125 14.09375 C 23.28125 13.933594 23.28125 13.769531 23.28125 13.605469 C 23.28125 13.574219 23.28125 13.542969 23.28125 13.507812 C 23.28125 12.460938 23.28125 11.410156 23.28125 10.363281 C 23.28125 9.609375 23.28125 8.855469 23.28125 8.101562 C 23.28125 8.085938 23.28125 8.074219 23.28125 8.054688 C 23.285156 7.714844 23.285156 7.375 23.285156 7.035156 C 23.285156 6.898438 23.285156 6.761719 23.285156 6.625 C 23.285156 6.609375 23.285156 6.597656 23.285156 6.582031 C 23.285156 6.097656 23.285156 5.617188 23.285156 5.132812 C 23.285156 4.632812 23.285156 4.132812 23.285156 3.636719 C 23.285156 3.347656 23.285156 3.058594 23.285156 2.769531 C 23.285156 2.578125 23.285156 2.386719 23.285156 2.195312 C 23.285156 2.085938 23.285156 1.976562 23.285156 1.863281 C 23.285156 1.765625 23.285156 1.664062 23.285156 1.566406 C 23.285156 1.53125 23.285156 1.492188 23.285156 1.457031 C 23.289062 1.21875 23.289062 1.21875 23.191406 1.003906 C 23.136719 0.949219 23.078125 0.917969 23.007812 0.886719 C 22.992188 0.878906 22.976562 0.871094 22.964844 0.863281 C 22.914062 0.859375 22.867188 0.859375 22.816406 0.859375 C 22.804688 0.859375 22.789062 0.859375 22.773438 0.859375 C 22.722656 0.859375 22.667969 0.859375 22.617188 0.859375 C 22.582031 0.859375 22.542969 0.859375 22.507812 0.859375 C 22.402344 0.859375 22.300781 0.859375 22.199219 0.859375 C 22.085938 0.859375 21.972656 0.859375 21.863281 0.859375 C 21.640625 0.859375 21.417969 0.859375 21.195312 0.859375 C 20.929688 0.859375 20.664062 0.859375 20.398438 0.859375 C 19.710938 0.859375 19.023438 0.855469 18.335938 0.855469 C 18.183594 0.855469 18.03125 0.855469 17.878906 0.855469 C 16.75 0.855469 15.621094 0.855469 14.492188 0.855469 C 14.230469 0.855469 13.96875 0.855469 13.707031 0.855469 C 13.675781 0.855469 13.644531 0.855469 13.609375 0.855469 C 12.554688 0.855469 11.5 0.851562 10.445312 0.851562 C 9.6875 0.851562 8.925781 0.851562 8.167969 0.851562 C 8.152344 0.851562 8.136719 0.851562 8.121094 0.851562 C 7.78125 0.851562 7.4375 0.851562 7.09375 0.851562 C 6.957031 0.851562 6.820312 0.851562 6.683594 0.851562 C 6.660156 0.851562 6.660156 0.851562 6.636719 0.851562 C 6.152344 0.851562 5.664062 0.847656 5.179688 0.847656 C 4.675781 0.847656 4.175781 0.847656 3.671875 0.847656 C 3.382812 0.847656 3.089844 0.847656 2.800781 0.847656 C 2.609375 0.847656 2.414062 0.847656 2.222656 0.847656 C 2.109375 0.847656 2 0.847656 1.890625 0.847656 C 1.789062 0.847656 1.6875 0.847656 1.589844 0.847656 C 1.554688 0.847656 1.515625 0.847656 1.480469 0.847656 C 1.28125 0.84375 1.117188 0.847656 0.96875 0.996094 Z M 0.96875 0.996094 "/>
<path style=" stroke:none;fill-rule:nonzero;fill:rgb(2.745098%,2.745098%,2.745098%);fill-opacity:1;" d="M 2.050781 21.167969 C 8.507812 21.167969 14.964844 21.167969 21.617188 21.167969 C 21.617188 21.269531 21.617188 21.371094 21.617188 21.476562 C 15.160156 21.476562 8.703125 21.476562 2.050781 21.476562 C 2.050781 21.375 2.050781 21.269531 2.050781 21.167969 Z M 2.050781 21.167969 "/>
<path style=" stroke:none;fill-rule:nonzero;fill:rgb(1.568628%,1.568628%,1.568628%);fill-opacity:1;" d="M 2.292969 19.660156 C 8.75 19.660156 15.207031 19.660156 21.859375 19.660156 C 21.859375 19.761719 21.859375 19.863281 21.859375 19.96875 C 15.402344 19.96875 8.945312 19.96875 2.292969 19.96875 C 2.292969 19.867188 2.292969 19.765625 2.292969 19.660156 Z M 2.292969 19.660156 "/>
<path style=" stroke:none;fill-rule:nonzero;fill:rgb(0%,0%,0%);fill-opacity:1;" d="M 12.023438 17.777344 C 15.1875 17.777344 18.355469 17.777344 21.617188 17.777344 C 21.617188 17.902344 21.617188 18.027344 21.617188 18.15625 C 18.449219 18.15625 15.285156 18.15625 12.023438 18.15625 C 12.023438 18.03125 12.023438 17.90625 12.023438 17.777344 Z M 12.023438 17.777344 "/>
<path style=" stroke:none;fill-rule:nonzero;fill:rgb(6.666667%,5.098039%,9.803922%);fill-opacity:1;" d="M 0.859375 0.863281 C 0.953125 0.863281 1.050781 0.863281 1.148438 0.863281 C 1.046875 0.96875 1.046875 0.96875 0.988281 1.007812 C 0.9375 1.046875 0.914062 1.09375 0.882812 1.152344 C 0.875 1.152344 0.867188 1.152344 0.859375 1.152344 C 0.859375 1.054688 0.859375 0.960938 0.859375 0.863281 Z M 0.859375 0.863281 "/>
<path style=" stroke:none;fill-rule:nonzero;fill:rgb(2.745098%,2.352941%,3.921569%);fill-opacity:1;" d="M 22.984375 0.863281 C 23.078125 0.863281 23.175781 0.863281 23.273438 0.863281 C 23.273438 0.949219 23.273438 1.039062 23.273438 1.128906 C 23.234375 1.09375 23.199219 1.054688 23.160156 1.019531 C 23.160156 1.003906 23.160156 0.988281 23.160156 0.972656 C 23.148438 0.96875 23.136719 0.960938 23.125 0.953125 C 23.078125 0.933594 23.03125 0.910156 22.984375 0.886719 C 22.984375 0.878906 22.984375 0.871094 22.984375 0.863281 Z M 22.984375 0.863281 "/>
<path style=" stroke:none;fill-rule:nonzero;fill:rgb(3.921569%,2.352941%,6.27451%);fill-opacity:1;" d="M 0.859375 22.804688 C 0.890625 22.839844 0.917969 22.878906 0.949219 22.914062 C 0.984375 22.953125 1.023438 22.988281 1.058594 23.027344 C 1.082031 23.046875 1.101562 23.070312 1.125 23.09375 C 1.039062 23.09375 0.949219 23.09375 0.859375 23.09375 C 0.859375 22.996094 0.859375 22.902344 0.859375 22.804688 Z M 0.859375 22.804688 "/>
<path style=" stroke:none;fill-rule:nonzero;fill:rgb(0.784314%,0.784314%,0.784314%);fill-opacity:1;" d="M 23.25 22.828125 C 23.257812 22.828125 23.265625 22.828125 23.273438 22.828125 C 23.273438 22.914062 23.273438 23 23.273438 23.09375 C 23.183594 23.09375 23.097656 23.09375 23.007812 23.09375 C 23.023438 23.082031 23.039062 23.070312 23.054688 23.054688 C 23.132812 22.992188 23.203125 22.917969 23.25 22.828125 Z M 23.25 22.828125 "/>
</g>
</svg>
