<?xml version="1.0" encoding="UTF-8"?>
<svg version="1.1" xmlns="http://www.w3.org/2000/svg" width="1088" height="1084">
<path d="M0 0 C359.04 0 718.08 0 1088 0 C1088 357.72 1088 715.44 1088 1084 C728.96 1084 369.92 1084 0 1084 C0 726.28 0 368.56 0 0 Z " fill="#FEFEFE" transform="translate(0,0)"/>
<path d="M0 0 C290.4 0 580.8 0 880 0 C880 207.24 880 414.48 880 628 C589.6 628 299.2 628 0 628 C0 420.76 0 213.52 0 0 Z " fill="#832BDC" transform="translate(100,119)"/>
<path d="M0 0 C359.04 0 718.08 0 1088 0 C1088 357.72 1088 715.44 1088 1084 C728.96 1084 369.92 1084 0 1084 C0 726.28 0 368.56 0 0 Z M35 35 C35 368.96 35 702.92 35 1047 C372.92 1047 710.84 1047 1059 1047 C1059 713.04 1059 379.08 1059 35 C721.08 35 383.16 35 35 35 Z " fill="#000000" transform="translate(0,0)"/>
<path d="M0 0 C359.04 0 718.08 0 1088 0 C1088 357.72 1088 715.44 1088 1084 C728.96 1084 369.92 1084 0 1084 C0 726.28 0 368.56 0 0 Z M24.75 16.125 C24.14671875 16.64320312 23.5434375 17.16140625 22.921875 17.6953125 C15.46148098 26.64171997 15.28767989 34.88127465 15.37358761 46.05886078 C15.36867237 47.81128672 15.36156634 49.56370763 15.35247365 51.31611687 C15.33381479 56.14004853 15.3463293 60.96347502 15.36386359 65.78739239 C15.37743487 71.03223356 15.36203824 76.27700221 15.35031277 81.52183676 C15.33377869 90.71686435 15.33588299 99.91174221 15.35013962 109.10677147 C15.37128156 122.7799207 15.36388097 136.45295021 15.3507644 150.12610413 C15.32959075 173.12806741 15.33221288 196.12995146 15.34908867 219.13191223 C15.36578561 241.91649585 15.37388963 264.70105164 15.3698597 287.48564148 C15.36961933 288.9162556 15.36938014 290.34686971 15.36914212 291.77748383 C15.36817335 297.52644794 15.36715093 303.27541204 15.36605701 309.02437613 C15.36302828 325.09537005 15.36170529 341.16636389 15.36168766 357.23735809 C15.36168639 357.96920892 15.36168513 358.70105975 15.36168382 359.45508788 C15.36176394 382.77699067 15.36931682 406.09888485 15.38209438 429.420784 C15.38250807 430.1772711 15.38292176 430.93375821 15.38334798 431.71316917 C15.39009165 443.99823179 15.3972453 456.28329418 15.40442721 468.56835655 C15.43288509 517.29314523 15.43885327 566.01788131 15.42358398 614.74267578 C15.42262456 617.82170945 15.42166754 620.90074313 15.42071127 623.9797768 C15.4204748 624.7410565 15.42023834 625.50233621 15.4199947 626.28668499 C15.4173819 634.71752864 15.41484933 643.1483723 15.4124136 651.579216 C15.41219378 652.33525692 15.41197397 653.09129783 15.41174749 653.87024908 C15.40502532 677.16771456 15.40330485 700.46517574 15.40717411 723.76264191 C15.40729557 724.49395614 15.40741702 725.22527038 15.40754216 725.97874565 C15.41027021 742.03184881 15.41433322 758.08495145 15.41958781 774.13805397 C15.4214662 779.88189583 15.42329264 785.62573771 15.42511335 791.36957958 C15.4257976 793.51181664 15.42649914 795.65405369 15.42720087 797.79629074 C15.43225642 813.46765469 15.43457872 829.13901283 15.42976642 844.81037712 C15.42954974 845.51669876 15.42933306 846.22302041 15.42910981 846.95074574 C15.42800097 850.50704087 15.42684199 854.06333599 15.42566141 857.6196311 C15.41713651 883.3150481 15.42132958 909.01039322 15.4484285 934.7058028 C15.46237487 948.30131415 15.46531127 961.89672273 15.4524938 975.49223579 C15.44505023 984.56580219 15.452082 993.63928179 15.47105191 1002.71283125 C15.48146749 1007.88774885 15.48551217 1013.06245914 15.47207337 1018.23737448 C15.45998683 1022.94349574 15.46624058 1027.64921968 15.48723346 1032.35530638 C15.4915614 1034.04873875 15.48917182 1035.74220476 15.47929904 1037.43561388 C15.42021763 1048.36742867 15.96524968 1057.73568539 24 1066 C30.23734347 1071.25249976 34.99071037 1072.1237695 43.16899174 1072.12995183 C44.24231265 1072.1328007 44.24231265 1072.1328007 45.33731682 1072.13570711 C47.74618802 1072.14087421 50.1550009 1072.13891482 52.56387615 1072.13701439 C54.31133083 1072.13927044 56.05878498 1072.14196181 57.80623838 1072.14505023 C62.63487128 1072.15229682 67.46348865 1072.1532795 72.29212625 1072.153273 C77.53528603 1072.15434099 82.77843886 1072.16112984 88.02159482 1072.1671797 C98.43270151 1072.17826326 108.84380482 1072.18390591 119.25491637 1072.18788858 C131.72027762 1072.1928943 144.18563232 1072.20362119 156.65098971 1072.21437032 C186.78124482 1072.24000963 216.91150153 1072.25505718 247.04176429 1072.26788078 C257.01858544 1072.27213044 266.99540641 1072.27669807 276.97222733 1072.2814641 C329.23081511 1072.30637064 381.48940343 1072.3284342 433.74799586 1072.34065448 C437.57343397 1072.34155186 441.39887207 1072.34246656 445.22431018 1072.34338222 C445.98315869 1072.34356383 446.74200719 1072.34374544 447.52385111 1072.34393256 C455.21210619 1072.34577524 462.90036126 1072.3476411 470.58861632 1072.34953065 C472.1301388 1072.3499087 473.67166129 1072.35028499 475.21318378 1072.35065953 C524.72826617 1072.36269129 574.24331343 1072.39238327 623.75837927 1072.43407464 C659.33521411 1072.46402116 694.91204174 1072.49165099 730.48888874 1072.50135231 C731.22041792 1072.50155287 731.9519471 1072.50175342 732.70564383 1072.50196006 C748.76393786 1072.50631048 764.82223185 1072.50925633 780.88052638 1072.51088657 C787.34159334 1072.51156293 793.80266026 1072.51241845 800.26372719 1072.51332474 C800.97085362 1072.51341883 801.67798005 1072.51351293 802.40653455 1072.51360988 C825.19083343 1072.51672288 847.97508761 1072.53523632 870.75937038 1072.56167471 C894.34434811 1072.58895207 917.92925211 1072.59834824 941.51424863 1072.58702008 C955.11622769 1072.58103073 968.71803262 1072.5890209 982.31998543 1072.61685092 C991.39926346 1072.63405683 1000.47842228 1072.63319291 1009.55770277 1072.61748323 C1014.73518175 1072.6090434 1019.9123276 1072.60858813 1025.08977618 1072.63009469 C1029.79945671 1072.64950154 1034.50853695 1072.64591112 1039.2182011 1072.62394121 C1040.91179352 1072.62007558 1042.6054311 1072.62459979 1044.29897065 1072.63852822 C1055.06121202 1072.72131068 1063.72377063 1072.04682809 1071.875 1064.25 C1078.19317002 1054.58691645 1078.57020304 1046.20404036 1078.50057125 1034.95116997 C1078.50444272 1033.19984688 1078.51006701 1031.44852694 1078.51728085 1029.69721442 C1078.53204154 1024.87641279 1078.52186288 1020.05593558 1078.50766886 1015.2351441 C1078.49663159 1009.99366869 1078.50877207 1004.75223895 1078.51797634 999.5107671 C1078.53089534 990.32170851 1078.52890605 981.13274628 1078.51719666 971.94368744 C1078.49983233 958.27950957 1078.50530658 944.61540767 1078.51536357 930.9512259 C1078.53157216 907.96485041 1078.5287718 884.97852615 1078.51461601 861.99215317 C1078.50061287 839.22431878 1078.49357136 816.45650231 1078.49632454 793.68866348 C1078.49648742 792.25915653 1078.49664946 790.82964959 1078.49681065 789.40014264 C1078.49746895 783.655663 1078.4981727 777.91118337 1078.49893599 772.16670375 C1078.50104768 756.10840008 1078.5018001 740.05009649 1078.5015192 723.99179268 C1078.50150063 722.89489023 1078.50150063 722.89489023 1078.50148169 721.77582813 C1078.50099226 698.47279709 1078.49456655 675.16977163 1078.48396206 651.86674309 C1078.48361862 651.11087229 1078.48327518 650.3550015 1078.48292134 649.57622553 C1078.47732261 637.30111512 1078.47138843 625.02600487 1078.46543228 612.75089462 C1078.44182827 564.06032056 1078.43563818 515.36977783 1078.44604492 466.67919922 C1078.44669813 463.60204048 1078.44734944 460.52488175 1078.44800042 457.44772302 C1078.44816146 456.6869079 1078.44832249 455.92609279 1078.44848841 455.14222268 C1078.45026786 446.71660506 1078.45199 438.29098744 1078.45364285 429.8653698 C1078.45379221 429.10980478 1078.45394158 428.35423977 1078.45409547 427.57577885 C1078.46195151 387.51811684 1078.45634741 347.46045761 1078.44552955 307.40279658 C1078.4439803 301.66406208 1078.44246694 295.92532757 1078.44095473 290.18659307 C1078.44038649 288.04624721 1078.439805 285.90590136 1078.43922299 283.76555551 C1078.43501995 268.10533807 1078.43282617 252.44512376 1078.43590808 236.78490591 C1078.43604669 236.07892974 1078.4361853 235.37295357 1078.43632811 234.64558418 C1078.43703852 231.09097312 1078.43778472 227.53636207 1078.43854547 223.98175102 C1078.44403138 198.3056067 1078.43991366 172.62950334 1078.41855692 146.95336424 C1078.40754714 133.36633461 1078.40479907 119.77936246 1078.41384545 106.19233104 C1078.41904829 97.12697567 1078.41341057 88.06166967 1078.39879211 78.99632468 C1078.39075475 73.82447889 1078.38752225 68.65274964 1078.39736467 63.48090433 C1078.40620954 58.77994587 1078.40135924 54.07921209 1078.38538523 49.37827427 C1078.3820591 47.68444416 1078.38379955 45.99059496 1078.39111372 44.29677738 C1078.40029555 42.00162101 1078.39105197 39.7072437 1078.37719816 37.41212738 C1078.37655763 35.50383928 1078.37655763 35.50383928 1078.37590417 33.55699991 C1077.56302537 25.86511974 1073.63481186 20.14288384 1068 15 C1061.80069429 10.97507764 1056.33464493 9.87533628 1048.98611623 9.8723495 C1048.27519495 9.87069872 1047.56427367 9.86904794 1046.83180932 9.86734714 C1044.43267482 9.86300892 1042.03360132 9.86582761 1039.63446522 9.86857224 C1037.8964007 9.86692323 1036.15833656 9.86483725 1034.42027304 9.86235213 C1029.61305505 9.85676758 1024.80585481 9.85746116 1019.99863461 9.85912972 C1014.780445 9.85985874 1009.56226047 9.85484279 1004.344073 9.8505547 C993.98050049 9.84296127 983.61693313 9.84078096 973.25335813 9.84022565 C960.84574616 9.83931334 948.43813898 9.83264977 936.03052907 9.82587883 C906.75105112 9.81018485 877.47157484 9.80412885 848.1920936 9.7994718 C833.29861271 9.7970895 818.40513227 9.79338621 803.51165172 9.7894347 C755.75025038 9.77676971 707.98884906 9.76598569 660.22744606 9.76259424 C657.94425415 9.762432 655.66106224 9.76226644 653.37787033 9.76209986 C648.79881123 9.76176606 644.21975212 9.76143557 639.64069301 9.7611053 C634.27960525 9.7607184 628.9185175 9.76032879 623.55742974 9.75993423 C622.0230367 9.75982182 620.48864366 9.7597104 618.95425063 9.75959998 C569.66801859 9.75605005 520.38180114 9.74096989 471.09557467 9.71766224 C435.68482937 9.70092314 400.27408682 9.68544663 364.86333752 9.68092728 C363.77123227 9.68078705 363.77123227 9.68078705 362.65706429 9.68064399 C346.67491518 9.67862504 330.69276612 9.67746891 314.71061688 9.6771154 C308.99201395 9.67697922 303.27341102 9.67677023 297.5548081 9.67652215 C296.13213126 9.67646059 294.70945442 9.67640227 293.28677758 9.6763472 C270.60751963 9.675427 247.92827689 9.66545416 225.24902395 9.65088971 C201.77354652 9.63587425 178.29809526 9.63168041 154.82261214 9.63998267 C141.28268122 9.64444888 127.74281262 9.64053878 114.20288984 9.62474416 C105.16620757 9.61502586 96.12956917 9.61614217 87.09288734 9.62618039 C81.93896339 9.63159521 76.78515951 9.63220957 71.63124529 9.61967167 C66.94415599 9.60836419 62.25728487 9.61082244 57.57020326 9.62433875 C55.88361988 9.62677777 54.19701988 9.62417109 52.51045481 9.61594227 C37.6217883 9.33859735 37.6217883 9.33859735 24.75 16.125 Z " fill="#FBFBFB" transform="translate(0,0)"/>
<path d="M0 0 C137.61 0 275.22 0 417 0 C417 15.84 417 31.68 417 48 C279.39 48 141.78 48 0 48 C0 32.16 0 16.32 0 0 Z " fill="#000000" transform="translate(101,786)"/>
<path d="M0 0 C337.92 0 675.84 0 1024 0 C1024 333.96 1024 667.92 1024 1012 C686.08 1012 348.16 1012 0 1012 C0 678.04 0 344.08 0 0 Z M9 10 C8.19605 10.79529135 8.19605 10.79529135 7.37585858 11.6066492 C2.26832824 18.01365996 3.3085322 26.46361558 3.36800098 34.2174139 C3.36247933 35.89022576 3.3547687 37.56303157 3.34507129 39.23582444 C3.3247396 43.84336341 3.33559897 48.4503855 3.35146087 53.05792266 C3.36322463 58.06646005 3.34606715 63.07491127 3.33257836 68.08343273 C3.31295817 76.86510016 3.31200919 85.64661711 3.32322311 94.42829704 C3.33985366 107.48681664 3.327997 120.54520165 3.31051526 133.60371452 C3.27940581 157.60196875 3.27951924 181.60016929 3.29082636 205.5984336 C3.29241661 208.99878594 3.29395527 212.3991383 3.29544091 215.79949069 C3.2957361 216.47487807 3.29603129 217.15026545 3.29633542 217.84611912 C3.30293553 233.49421295 3.29826681 249.14229875 3.29198265 264.79039192 C3.29144822 266.15665936 3.29091585 267.5229268 3.29038553 268.88919424 C3.28824966 274.37957009 3.28608542 279.86994593 3.283873 285.36032176 C3.27773132 300.70860584 3.27334853 316.05689019 3.27038097 331.40517521 C3.27024578 332.10412243 3.27011059 332.80306965 3.2699713 333.5231971 C3.26579792 355.79736367 3.26951646 378.07152193 3.27847004 400.34568691 C3.27875884 401.0682117 3.27904765 401.7907365 3.2793452 402.53515598 C3.28405119 414.26872223 3.28909209 426.00228833 3.2941677 437.73585443 C3.3142726 484.27095748 3.30605316 530.80596949 3.27270508 577.34106445 C3.26431939 589.06749934 3.25600576 600.79393427 3.24815083 612.52036953 C3.24766616 613.24239777 3.24718149 613.96442602 3.24668214 614.7083339 C3.23184396 636.95823403 3.22441985 659.20812656 3.22489452 681.45803165 C3.22490891 682.15648006 3.2249233 682.85492847 3.22493812 683.57454198 C3.22533478 698.9063472 3.22760804 714.2381517 3.23158585 729.5699564 C3.23299892 735.05575959 3.23430328 740.5415628 3.23556742 746.02736602 C3.23588489 747.3921069 3.23621002 748.75684777 3.23654283 750.12158864 C3.24181057 771.87436037 3.23039321 793.62708271 3.21098844 815.37984513 C3.19107172 837.89408822 3.19353946 860.40824197 3.22142575 882.9224792 C3.23689515 895.90704867 3.2357473 908.89136795 3.21089871 921.87592424 C3.19597142 930.54229116 3.20274518 939.20846341 3.22738829 947.87480776 C3.24083028 952.8172495 3.24470705 957.75919729 3.222307 962.70161765 C3.20213008 967.19689846 3.20949891 971.69125553 3.23895351 976.18647743 C3.24470941 977.80352213 3.24039333 979.42064167 3.22482855 981.0376217 C3.15411059 988.93289925 3.20625069 995.61570442 8.03035266 1002.21519256 C13.16475754 1006.86776354 17.33018417 1008.4998843 24.21680647 1008.50139666 C25.26137451 1008.50981056 25.26137451 1008.50981056 26.32704494 1008.51839444 C28.65885262 1008.53230575 30.98959732 1008.51777396 33.3213892 1008.50336456 C35.0178161 1008.50753784 36.71423944 1008.51346339 38.41065481 1008.52098203 C43.08835108 1008.53659913 47.76571837 1008.52721731 52.44340946 1008.51387022 C57.526268 1008.50374668 62.60907511 1008.5167538 67.69192642 1008.52684355 C76.60555576 1008.5413126 85.51908825 1008.5408384 94.43272209 1008.53065491 C107.68732534 1008.515553 120.94184659 1008.52324529 134.19644925 1008.53548814 C156.49293548 1008.55535296 178.78939 1008.5560598 201.08587837 1008.54518127 C201.76498637 1008.54485009 202.44409438 1008.54451891 203.14378141 1008.54417769 C203.82397362 1008.54384597 204.50416583 1008.54351426 205.20496993 1008.54317249 C225.91761066 1008.53308449 246.63023567 1008.53047198 267.34287834 1008.53526306 C268.72925989 1008.53557298 270.11564144 1008.5358816 271.50202299 1008.53618894 C277.07314113 1008.53743078 282.64425926 1008.53870545 288.21537739 1008.540028 C303.78938473 1008.54369622 319.36339213 1008.54597848 334.93739986 1008.54717255 C335.64663166 1008.54722713 336.35586346 1008.54728171 337.08658713 1008.54733795 C359.68943117 1008.54897532 382.29226972 1008.54446613 404.89511204 1008.53577423 C405.62833358 1008.53549323 406.36155513 1008.53521224 407.11699551 1008.53492273 C419.02445792 1008.53034279 430.93192021 1008.52546501 442.83938249 1008.52056203 C490.06993879 1008.50113526 537.30044975 1008.50203888 584.53100586 1008.52148438 C596.43361437 1008.52636902 608.33622288 1008.53121317 620.23883152 1008.53577423 C620.97168956 1008.53605602 621.70454761 1008.53633782 622.45961347 1008.53662815 C645.03954079 1008.54525097 667.61946435 1008.54891035 690.19939327 1008.54717255 C691.26244208 1008.54709104 691.26244208 1008.54709104 692.34696661 1008.54700789 C707.90298233 1008.54575806 723.45899765 1008.54322366 739.01501298 1008.53953053 C744.58087066 1008.53821393 750.14672835 1008.53696162 755.71258605 1008.53572769 C757.09726164 1008.53541814 758.48193723 1008.53510322 759.86661281 1008.53478291 C780.57516952 1008.53000574 801.28370851 1008.53407971 821.99226301 1008.54417769 C822.67145381 1008.54450888 823.35064461 1008.54484006 824.05041695 1008.54518127 C824.72835812 1008.545512 825.4062993 1008.54584273 826.10478414 1008.54618348 C848.95315203 1008.55720803 871.80148345 1008.55316746 894.64984722 1008.5320583 C907.83050861 1008.5202836 921.01106188 1008.51958888 934.19172055 1008.534643 C942.98499796 1008.54358099 951.77818828 1008.53808772 960.57145274 1008.52062392 C965.58878278 1008.51106674 970.60589727 1008.50794187 975.62322087 1008.52224785 C980.18286136 1008.53511688 984.742094 1008.52975616 989.30170444 1008.50952521 C990.94548056 1008.50547897 992.58929003 1008.50820702 994.23303984 1008.51834896 C996.45870575 1008.53111256 998.68294347 1008.51935983 1000.90854269 1008.50139666 C1002.14265502 1008.50112562 1003.37676735 1008.50085458 1004.64827702 1008.50057533 C1011.34375281 1007.500615 1015.15709505 1003.16047235 1019 998 C1020.13956903 994.5812929 1020.12710125 991.97250676 1020.12995183 988.36564523 C1020.1328007 987.34265973 1020.1328007 987.34265973 1020.13570711 986.29900786 C1020.14089323 983.99245803 1020.13891139 981.68596868 1020.13701439 979.37941456 C1020.13926941 977.71042987 1020.14196044 976.04144572 1020.14505023 974.37246236 C1020.15230942 969.75239373 1020.15327949 965.1323413 1020.153273 960.51226773 C1020.15433962 955.49870146 1020.16112671 950.48514248 1020.1671797 945.47158021 C1020.17827136 935.51263161 1020.18390792 925.55368654 1020.18788858 915.59473286 C1020.19289134 903.67225795 1020.2036178 891.74978991 1020.21437032 879.82731905 C1020.24001898 851.00753661 1020.25505907 822.18775103 1020.26788078 793.36796073 C1020.27212971 783.82545372 1020.27669732 774.2829469 1020.2814641 764.74044013 C1020.30637058 714.76516964 1020.328436 664.78989859 1020.34065448 614.81462324 C1020.34155186 611.15576516 1020.34246656 607.49690708 1020.34338222 603.83804901 C1020.34356383 603.11224005 1020.34374544 602.3864311 1020.34393256 601.63862793 C1020.34577526 594.28503402 1020.34764111 586.93144012 1020.34953065 579.57784623 C1020.3499087 578.10341712 1020.35028499 576.62898801 1020.35065953 575.1545589 C1020.36269125 527.79474065 1020.3923825 480.43495912 1020.43407464 433.07515818 C1020.46401902 399.04995809 1020.49165 365.02476553 1020.50135231 330.99955273 C1020.50155287 330.29999925 1020.50175342 329.60044578 1020.50196006 328.87969372 C1020.50631039 313.52366209 1020.5092563 298.1676305 1020.51088657 282.81159835 C1020.51156294 276.6331339 1020.51241846 270.45466948 1020.51332474 264.27620506 C1020.51341883 263.60000174 1020.51351293 262.92379841 1020.51360988 262.22710407 C1020.51672359 240.434151 1020.53524134 218.64124463 1020.56167471 196.8483084 C1020.58894549 174.29066733 1020.59835115 151.73307305 1020.58702008 129.17541561 C1020.5810284 116.16401805 1020.58903296 103.15280247 1020.61685092 90.14143233 C1020.63404637 81.4583014 1020.63320187 72.77529517 1020.61748323 64.09216171 C1020.60903661 59.13926377 1020.60861163 54.18671416 1020.63009469 49.23384789 C1020.64947278 44.73025957 1020.6459416 40.22729959 1020.62394121 35.72372862 C1020.62006906 34.10249684 1020.62462415 32.48121807 1020.63852822 30.86004129 C1020.85343026 20.04279044 1020.85343026 20.04279044 1016.43212972 10.41675539 C1013.89813795 7.90996676 1011.22006963 6.51890077 1008 5 C1007.34 4.67 1006.68 4.34 1006 4 C1003.81072115 3.90185336 1001.61835082 3.87101046 999.4268741 3.8688975 C998.73934181 3.86687403 998.05180952 3.86485056 997.34344292 3.86276577 C995.01197171 3.85714765 992.68055877 3.85871945 990.34908199 3.8601923 C988.66451107 3.85763475 986.97994077 3.85464131 985.29537132 3.85124859 C980.62735904 3.84314631 975.95936169 3.84134927 971.29134321 3.84052564 C966.22752727 3.83856287 961.16371954 3.83089006 956.09990841 3.82395309 C946.03891877 3.81110822 935.97793171 3.80374605 925.91693577 3.79805431 C913.87308606 3.79100856 901.82924409 3.77825015 889.78539931 3.76550511 C858.59515708 3.73289459 827.40490986 3.71299918 796.21465667 3.69502334 C789.33570466 3.69104745 782.45675279 3.68686147 775.57780091 3.68266794 C724.40510781 3.65151078 673.23241306 3.62442464 622.05971306 3.60772116 C610.19268434 3.60383432 598.32565565 3.59981422 586.45862699 3.59573691 C584.96894886 3.59522605 583.47927072 3.59471732 581.98959259 3.59421071 C534.14489629 3.57793976 486.30025051 3.54094611 438.45557918 3.49005692 C404.08402892 3.45350822 369.71248925 3.41980069 335.34092045 3.4075079 C334.63419405 3.40725381 333.92746766 3.40699971 333.19932532 3.40673792 C317.68553573 3.40122179 302.17174617 3.39738106 286.65795579 3.39511245 C280.41591746 3.39417446 274.17387917 3.39301832 267.9318409 3.39179802 C266.90709781 3.39160673 266.90709781 3.39160673 265.86165284 3.39141159 C243.84641391 3.38720155 221.83124258 3.36441379 199.81602852 3.33204309 C177.02625108 3.29863857 154.2365372 3.28663563 131.44673228 3.29947854 C118.30221262 3.30623112 105.15795304 3.296191 92.01347387 3.26235154 C83.24029934 3.2414088 74.46730172 3.24213347 65.69412218 3.26068495 C60.69055303 3.27064203 55.68748076 3.27099716 50.68395811 3.24502213 C46.1331678 3.22158472 41.58327146 3.22570108 37.03250392 3.25191882 C35.39533545 3.2565022 33.75810018 3.25099805 32.1210111 3.23423653 C23.10177404 3.14784337 15.663832 3.23914608 9 10 Z " fill="#8044EF" transform="translate(35,35)"/>
<path d="M0 0 C292.71 0 585.42 0 887 0 C887 4.62 887 9.24 887 14 C594.29 14 301.58 14 0 14 C0 9.38 0 4.76 0 0 Z " fill="#070707" transform="translate(93,956)"/>
<path d="M0 0 C292.71 0 585.42 0 887 0 C887 4.62 887 9.24 887 14 C594.29 14 301.58 14 0 14 C0 9.38 0 4.76 0 0 Z " fill="#040404" transform="translate(104,888)"/>
<path d="M0 0 C143.55 0 287.1 0 435 0 C435 5.61 435 11.22 435 17 C291.45 17 147.9 17 0 17 C0 11.39 0 5.78 0 0 Z " fill="#000000" transform="translate(545,803)"/>
<path d="M0 0 C4.29 0 8.58 0 13 0 C8.43147208 4.69543147 8.43147208 4.69543147 5.875 6.5 C3.5635066 8.34919472 2.44975141 10.44567608 1 13 C0.67 13 0.34 13 0 13 C0 8.71 0 4.42 0 0 Z " fill="#110D19" transform="translate(39,39)"/>
<path d="M0 0 C4.29 0 8.58 0 13 0 C13 3.96 13 7.92 13 12 C11.29115995 10.37660195 9.62553283 8.70680947 8 7 C8 6.34 8 5.68 8 5 C7.4225 4.71125 6.845 4.4225 6.25 4.125 C4.16666667 3.08333333 2.08333333 2.04166667 0 1 C0 0.67 0 0.34 0 0 Z " fill="#07060A" transform="translate(1042,39)"/>
<path d="M0 0 C1.32 1.65 2.64 3.3 4 5 C5.64646685 6.68662458 7.31183067 8.35511706 9 10 C9.99 10.99 10.98 11.98 12 13 C8.04 13 4.08 13 0 13 C0 8.71 0 4.42 0 0 Z " fill="#0A0610" transform="translate(39,1030)"/>
<path d="M0 0 C0.33 0 0.66 0 1 0 C1 3.96 1 7.92 1 12 C-2.96 12 -6.92 12 -11 12 C-10.278125 11.46375 -9.55625 10.9275 -8.8125 10.375 C-5.28644184 7.39743978 -2.0873016 4.17460321 0 0 Z " fill="#020202" transform="translate(1054,1031)"/>
</svg>
